<?xml version="1.0" encoding="utf-8"?>
<!-- Generator: Adobe Illustrator 19.1.0, SVG Export Plug-In . SVG Version: 6.00 Build 0)  -->
<svg version="1.1" xmlns="http://www.w3.org/2000/svg" xmlns:xlink="http://www.w3.org/1999/xlink" x="0px" y="0px"
	 viewBox="0 0 382.2 58" style="enable-background:new 0 0 382.2 58;" xml:space="preserve">
<style type="text/css">
	.st0{display:none;}
	.st1{display:inline;}
	.st2{fill:#666666;}
	.st3{font-family:'MinionMM-ItSC_578_wt_465__11_op';}
	.st4{font-size:22.3386px;}
	.st5{font-size:41px;}
	.st6{letter-spacing:-2.8;}
	.st7{letter-spacing:0.9;}
	.st8{fill:#F16D01;}
	.st9{fill:#FED09E;}
	.st10{opacity:0.7;}
	.st11{opacity:0;fill:#FFFFFF;}
	.st12{opacity:0.125;fill:#F1E6DF;}
	.st13{opacity:0.25;fill:#E3CDBF;}
	.st14{opacity:0.375;fill:#D5B49F;}
	.st15{opacity:0.5;fill:#C89B80;}
	.st16{opacity:0.625;fill:#BA8160;}
	.st17{opacity:0.75;fill:#AC6840;}
	.st18{opacity:0.875;fill:#9E4F20;}
	.st19{fill:#903600;}
	.st20{fill:url(#SVGID_1_);}
	.st21{fill:#8CC63F;}
	.st22{fill:#C8EA92;}
	.st23{opacity:0.125;fill:#EAEFE1;}
	.st24{opacity:0.25;fill:#D5DFC3;}
	.st25{opacity:0.375;fill:#BFCFA4;}
	.st26{opacity:0.5;fill:#AABF86;}
	.st27{opacity:0.625;fill:#95AF68;}
	.st28{opacity:0.75;fill:#809F4A;}
	.st29{opacity:0.875;fill:#6A8F2B;}
	.st30{fill:#557F0D;}
	.st31{fill:#527A14;}
	.st32{fill:url(#SVGID_2_);}
	.st33{fill:url(#SVGID_3_);}
	.st34{fill:#F3C108;}
	.st35{fill:#FFEA82;}
	.st36{opacity:0.125;fill:#EEEBDF;}
	.st37{opacity:0.25;fill:#DCD7BF;}
	.st38{opacity:0.375;fill:#CBC39F;}
	.st39{opacity:0.5;fill:#BAAF80;}
	.st40{opacity:0.625;fill:#A89B60;}
	.st41{opacity:0.75;fill:#978740;}
	.st42{opacity:0.875;fill:#857320;}
	.st43{fill:#745F00;}
	.st44{fill:#774F0D;}
	.st45{fill:url(#SVGID_4_);}
</style>
<g id="Layer_4">
</g>
<g id="Layer_2" class="st0">
	<g class="st1">
		<text transform="matrix(0.9173 0 0 1 68.3721 50)" class="st2 st3 st4">Application  Foundation  Framework</text>
	</g>
	<g class="st1">
		<text transform="matrix(1.0785 0 0 1 66.5006 28.9998)"><tspan x="0" y="0" class="st3 st5">Sem</tspan><tspan x="74.9" y="0" class="st3 st5 st6">a</tspan><tspan x="91.3" y="0" class="st3 st5 st7">T</tspan><tspan x="113.2" y="0" class="st3 st5">ree</tspan></text>
	</g>
</g>
<g id="Layer_5">
	<g>
		<g>
			<path class="st2" d="M72.3,45.4c-0.2,0.5-0.6,1.4-1,2.5c-0.3,1-0.3,1.1,1,1.3L72.1,50H68l0.1-0.8c1-0.1,1.3-0.3,2.2-2.1l5.4-11.4
				l1-0.3l0.4,3.5c0.3,2.8,0.6,5.6,0.9,8.2c0.2,1.9,0.4,2,1.4,2.1L79.4,50h-4.8l0.1-0.8c1-0.1,1.2-0.3,1.1-1.3
				c-0.1-0.8-0.2-1.9-0.2-2.5H72.3z M75.5,44.3L75,39.4h0c-0.8,1.7-1.5,3.1-2.2,4.9H75.5z"/>
			<path class="st2" d="M86.4,39.4c1.1,0,2,0.2,2.6,0.6c0.6,0.5,1,1.2,1,2.3c0,2.1-1.6,3.6-3.9,3.7c-0.2,0-0.4,0-0.7-0.1l-1-0.3
				l-0.4,2.1c-0.2,1.3-0.1,1.4,1.2,1.5L85.2,50h-4.8l0.1-0.8c1.1-0.1,1.2-0.2,1.4-1.5l1.1-6c0.2-1.3,0.1-1.4-1-1.5l0.2-0.8H86.4z
				 M84.6,44.8c0.2,0.1,0.6,0.2,0.9,0.2c1.2,0,2.1-1.2,2.1-2.8c0-1.4-0.7-1.9-1.6-1.9c-0.6,0-0.7,0.2-0.8,0.7L84.6,44.8z"/>
			<path class="st2" d="M96,39.4c1.1,0,2,0.2,2.6,0.6c0.6,0.5,1,1.2,1,2.3c0,2.1-1.6,3.6-3.9,3.7c-0.2,0-0.4,0-0.7-0.1l-1-0.3
				l-0.4,2.1c-0.2,1.3-0.1,1.4,1.2,1.5L94.8,50H90l0.1-0.8c1.1-0.1,1.2-0.2,1.4-1.5l1.1-6c0.2-1.3,0.1-1.4-1-1.5l0.2-0.8H96z
				 M94.2,44.8c0.2,0.1,0.6,0.2,0.9,0.2c1.2,0,2.1-1.2,2.1-2.8c0-1.4-0.7-1.9-1.6-1.9c-0.6,0-0.7,0.2-0.8,0.7L94.2,44.8z"/>
			<path class="st2" d="M99.7,50l0.1-0.8c1.2-0.1,1.3-0.2,1.5-1.5l1.1-6c0.2-1.3,0.1-1.4-1-1.5l0.1-0.8h4.7l-0.1,0.8
				c-1.2,0.1-1.3,0.2-1.5,1.5l-1,5.7c-0.1,0.8-0.1,1.2,0.1,1.4c0.2,0.2,0.6,0.2,1.2,0.2c0.6,0,1.1-0.2,1.5-0.6
				c0.3-0.3,0.7-0.8,1-1.6l0.8,0.2c-0.2,0.6-0.8,2.4-1,2.9H99.7z"/>
			<path class="st2" d="M114.9,39.4l-0.2,0.8c-1,0.1-1.2,0.2-1.4,1.5l-1.1,6c-0.2,1.3-0.1,1.4,1,1.5l-0.1,0.8h-4.7l0.1-0.8
				c1.1-0.1,1.2-0.2,1.4-1.5l1.1-6c0.2-1.3,0.1-1.4-1-1.5l0.1-0.8H114.9z"/>
			<path class="st2" d="M123.1,42.7c-0.1-1.9-0.7-2.6-1.8-2.6c-2,0-3.5,2.7-3.5,5.7c0,2.1,0.7,3.5,2,3.5c1.1,0,2.1-1,3-2.6l0.7,0.3
				c-0.3,1-0.9,2.3-1.2,2.8c-0.5,0.1-1.7,0.5-2.7,0.5c-2.4,0-4.2-1.7-4.2-4.6c0-4,2.9-6.5,6.2-6.5c1.1,0,2.1,0.3,2.6,0.5
				c-0.1,0.9-0.2,1.8-0.3,2.9L123.1,42.7z"/>
			<path class="st2" d="M129.3,50l0.1-0.8l0.4,0c0.5-0.1,0.7-0.3,0.5-1.1l-0.2-1.1h-3.2c-0.1,0.3-0.3,0.7-0.6,1.2
				c-0.3,0.7-0.2,0.9,0.3,1l0.4,0.1l-0.2,0.8h-3.5l0.2-0.8c0.8-0.1,1.1-0.3,1.8-1.6l4.6-8.3l1-0.2l1.5,8.7c0.2,1.2,0.5,1.3,1.3,1.4
				l-0.2,0.8H129.3z M127.5,46h2.6l-0.6-3.9h0L127.5,46z"/>
			<path class="st2" d="M142.2,39.4c0.4,0,0.6-0.1,0.8-0.4h0.4c-0.1,0.8-0.4,2.5-0.5,3.4l-0.7,0c0-0.9-0.1-1.3-0.3-1.6
				c-0.2-0.3-0.6-0.5-1.2-0.5h-0.6l-1.3,7.3c-0.2,1.3-0.1,1.5,1.2,1.6L140,50h-5l0.1-0.8c1.2-0.1,1.3-0.2,1.5-1.6l1.3-7.3h-0.4
				c-0.8,0-1.3,0.2-1.5,0.5c-0.3,0.3-0.5,0.8-0.8,1.6h-0.7c0.3-1.4,0.6-2.6,0.8-3.5h0.4c0.1,0.4,0.3,0.4,0.7,0.4H142.2z"/>
			<path class="st2" d="M149.3,39.4l-0.2,0.8c-1,0.1-1.2,0.2-1.4,1.5l-1.1,6c-0.2,1.3-0.1,1.4,1,1.5l-0.1,0.8h-4.7l0.1-0.8
				c1.1-0.1,1.2-0.2,1.4-1.5l1.1-6c0.2-1.3,0.1-1.4-1-1.5l0.1-0.8H149.3z"/>
			<path class="st2" d="M155.2,39.2c2.4,0,4,1.8,4,4.6c0,3.9-2.5,6.5-5.5,6.5c-2.5,0-4.1-1.8-4.1-4.5
				C149.7,42,152.3,39.2,155.2,39.2L155.2,39.2z M155.1,40.1c-1.7,0-2.9,3.2-2.9,6.4c0,1.4,0.4,2.8,1.7,2.8c1.9,0,2.9-3.7,2.9-6.4
				C156.8,41.4,156.4,40.1,155.1,40.1L155.1,40.1z"/>
			<path class="st2" d="M164.1,39.4l3.4,7h0l0.5-2.6c0.2-1.3,0.3-2.1,0.3-2.6c0-0.6-0.4-0.9-1.3-0.9l0.1-0.8h3.9l-0.1,0.8
				c-0.7,0-1.2,0.3-1.3,0.9c-0.2,0.5-0.4,1.4-0.6,2.6l-1.1,6.3h-1L163,42h0l-0.6,3.7c-0.2,1.2-0.3,2.1-0.3,2.6c0,0.6,0.3,0.9,1.3,1
				l-0.1,0.7h-3.8l0.1-0.7c0.8,0,1.1-0.3,1.3-1c0.1-0.5,0.3-1.3,0.6-2.6l0.6-3.4c0.3-1.7,0.1-1.9-1.2-2l0.1-0.8H164.1z"/>
			<path class="st2" d="M188.3,35.7c-0.1,0.5-0.3,2.1-0.4,3.4l-0.7,0.1c0-0.9-0.2-1.5-0.4-1.9c-0.2-0.4-0.7-0.6-1.8-0.6h-0.9
				c-0.6,0-0.6,0.1-0.8,0.8l-0.9,4.8h1.6c1.4,0,1.6-0.2,2.2-1.6h0.7l-0.8,4.5h-0.7c0.1-1.7-0.1-1.8-1.6-1.8h-1.6l-0.7,3.8
				c-0.3,1.8-0.2,2,1.4,2.1l-0.1,0.8h-5.5l0.1-0.8c1.2-0.1,1.4-0.3,1.7-2.1l1.5-8.6c0.3-1.8,0.2-2-1.2-2.1l0.1-0.8H188.3z"/>
			<path class="st2" d="M193.3,39.2c2.4,0,4,1.8,4,4.6c0,3.9-2.5,6.5-5.5,6.5c-2.5,0-4.1-1.8-4.1-4.5
				C187.8,42,190.4,39.2,193.3,39.2L193.3,39.2z M193.2,40.1c-1.7,0-2.9,3.2-2.9,6.4c0,1.4,0.4,2.8,1.7,2.8c1.9,0,2.9-3.7,2.9-6.4
				C194.9,41.4,194.5,40.1,193.2,40.1L193.2,40.1z"/>
			<path class="st2" d="M203.9,39.4l-0.2,0.8c-1,0.1-1.1,0.2-1.4,1.7l-0.6,3.4c-0.5,2.5,0.2,3.6,1.6,3.6c1.4,0,2.4-1.6,2.8-4.1
				l0.2-1c0.3-1.6,0.3-2.2,0.3-2.8c0-0.6-0.3-0.9-1.2-0.9l0.1-0.8h3.7l-0.1,0.8c-0.7,0-1.1,0.3-1.3,0.9c-0.2,0.5-0.3,1.2-0.6,2.8
				l-0.2,1.4c-0.2,1.4-0.8,3-1.7,3.9c-0.7,0.7-1.7,1.1-2.7,1.1c-1,0-1.9-0.3-2.5-0.8c-0.6-0.7-1-1.8-0.7-3.8l0.7-3.7
				c0.3-1.5,0.1-1.6-1-1.7l0.1-0.8H203.9z"/>
			<path class="st2" d="M212.9,39.4l3.4,7h0l0.5-2.6c0.2-1.3,0.3-2.1,0.3-2.6c0-0.6-0.4-0.9-1.3-0.9l0.1-0.8h3.9l-0.1,0.8
				c-0.7,0-1.2,0.3-1.3,0.9c-0.2,0.5-0.4,1.4-0.6,2.6l-1.1,6.3h-1l-3.8-8.1h0l-0.6,3.7c-0.2,1.2-0.3,2.1-0.3,2.6
				c0,0.6,0.3,0.9,1.3,1l-0.1,0.7h-3.8l0.1-0.7c0.8,0,1.1-0.3,1.3-1c0.1-0.5,0.3-1.3,0.6-2.6l0.6-3.4c0.3-1.7,0.1-1.9-1.2-2l0.1-0.8
				H212.9z"/>
			<path class="st2" d="M224.8,39.4c1.3,0,2.6,0.3,3.4,0.9c0.9,0.7,1.5,1.8,1.5,3.5c0,2.2-1,4-2.6,5.1c-1.2,0.8-2.8,1.1-4.4,1.1
				h-3.8l0.1-0.8c1.1-0.1,1.2-0.2,1.4-1.6l1-5.9c0.2-1.4,0.1-1.5-1-1.6l0.1-0.8H224.8z M222.9,47.5c-0.2,1.1-0.1,1.6,0.7,1.6
				c2.1,0,3.7-2.3,3.7-5.5c0-2.2-0.8-3.3-2.4-3.3c-0.3,0-0.6,0.1-0.7,0.2c-0.1,0.1-0.2,0.3-0.3,0.8L222.9,47.5z"/>
			<path class="st2" d="M234.8,50l0.1-0.8l0.4,0c0.5-0.1,0.7-0.3,0.5-1.1l-0.2-1.1h-3.2c-0.1,0.3-0.3,0.7-0.6,1.2
				c-0.3,0.7-0.2,0.9,0.3,1l0.4,0.1l-0.2,0.8H229l0.2-0.8c0.8-0.1,1.1-0.3,1.8-1.6l4.6-8.3l1-0.2l1.5,8.7c0.2,1.2,0.5,1.3,1.3,1.4
				l-0.2,0.8H234.8z M233,46h2.6l-0.6-3.9h0L233,46z"/>
			<path class="st2" d="M247.7,39.4c0.4,0,0.6-0.1,0.8-0.4h0.4c-0.1,0.8-0.4,2.5-0.5,3.4l-0.7,0c0-0.9-0.1-1.3-0.3-1.6
				c-0.2-0.3-0.6-0.5-1.2-0.5h-0.6l-1.3,7.3c-0.2,1.3-0.1,1.5,1.2,1.6l-0.1,0.8h-5l0.1-0.8c1.2-0.1,1.3-0.2,1.5-1.6l1.3-7.3H243
				c-0.8,0-1.3,0.2-1.5,0.5c-0.3,0.3-0.5,0.8-0.8,1.6H240c0.3-1.4,0.6-2.6,0.8-3.5h0.4c0.1,0.4,0.3,0.4,0.7,0.4H247.7z"/>
			<path class="st2" d="M254.8,39.4l-0.2,0.8c-1,0.1-1.2,0.2-1.4,1.5l-1.1,6c-0.2,1.3-0.1,1.4,1,1.5l-0.1,0.8h-4.7l0.1-0.8
				c1.1-0.1,1.2-0.2,1.4-1.5l1.1-6c0.2-1.3,0.1-1.4-1-1.5l0.1-0.8H254.8z"/>
			<path class="st2" d="M260.7,39.2c2.4,0,4,1.8,4,4.6c0,3.9-2.5,6.5-5.5,6.5c-2.5,0-4.1-1.8-4.1-4.5
				C255.2,42,257.8,39.2,260.7,39.2L260.7,39.2z M260.6,40.1c-1.7,0-2.9,3.2-2.9,6.4c0,1.4,0.4,2.8,1.7,2.8c1.9,0,2.9-3.7,2.9-6.4
				C262.3,41.4,261.9,40.1,260.6,40.1L260.6,40.1z"/>
			<path class="st2" d="M269.6,39.4l3.4,7h0l0.5-2.6c0.2-1.3,0.3-2.1,0.3-2.6c0-0.6-0.4-0.9-1.3-0.9l0.1-0.8h3.9l-0.1,0.8
				c-0.7,0-1.2,0.3-1.3,0.9c-0.2,0.5-0.4,1.4-0.6,2.6l-1.1,6.3h-1l-3.8-8.1h0l-0.6,3.7c-0.2,1.2-0.3,2.1-0.3,2.6
				c0,0.6,0.3,0.9,1.3,1l-0.1,0.7h-3.8l0.1-0.7c0.8,0,1.1-0.3,1.3-1c0.1-0.5,0.3-1.3,0.6-2.6l0.6-3.4c0.3-1.7,0.1-1.9-1.2-2l0.1-0.8
				H269.6z"/>
			<path class="st2" d="M293.8,35.7c-0.1,0.5-0.3,2.1-0.4,3.4l-0.7,0.1c0-0.9-0.2-1.5-0.4-1.9c-0.2-0.4-0.7-0.6-1.8-0.6h-0.9
				c-0.6,0-0.6,0.1-0.8,0.8l-0.9,4.8h1.6c1.4,0,1.6-0.2,2.2-1.6h0.7l-0.8,4.5h-0.7c0.1-1.7-0.1-1.8-1.6-1.8h-1.6l-0.7,3.8
				c-0.3,1.8-0.2,2,1.4,2.1l-0.1,0.8h-5.5l0.1-0.8c1.2-0.1,1.4-0.3,1.7-2.1l1.5-8.6c0.3-1.8,0.2-2-1.2-2.1l0.1-0.8H293.8z"/>
			<path class="st2" d="M296.3,45.5l-0.4,2.2c-0.2,1.3-0.1,1.4,1,1.5l-0.1,0.8h-4.6l0.1-0.8c1.1-0.1,1.2-0.2,1.4-1.5l1-6
				c0.2-1.3,0.1-1.4-1-1.5l0.1-0.8h4.3c0.9,0,1.8,0.1,2.4,0.5c0.6,0.4,1,1,1,2.1c0,1.6-1.1,2.5-2.3,3c0.2,0.5,0.6,1.6,0.9,2.2
				c0.3,0.7,0.6,1.2,0.8,1.5c0.2,0.3,0.5,0.6,0.8,0.7l-0.2,0.6h-0.4c-2,0-2.5-0.6-2.9-1.5c-0.3-0.7-0.6-1.6-0.8-2.4
				c-0.2-0.5-0.4-0.7-0.9-0.7H296.3z M296.5,44.7h0.5c0.5,0,1-0.1,1.4-0.4c0.6-0.4,1-1.2,1-2.2c0-1.2-0.6-1.7-1.4-1.7
				c-0.6,0-0.7,0.2-0.8,0.7L296.5,44.7z"/>
			<path class="st2" d="M308.4,50l0.1-0.8l0.4,0c0.5-0.1,0.7-0.3,0.5-1.1l-0.2-1.1h-3.2c-0.1,0.3-0.3,0.7-0.6,1.2
				c-0.3,0.7-0.2,0.9,0.3,1l0.4,0.1l-0.2,0.8h-3.5l0.2-0.8c0.8-0.1,1.1-0.3,1.8-1.6l4.6-8.3l1-0.2l1.5,8.7c0.2,1.2,0.5,1.3,1.3,1.4
				l-0.2,0.8H308.4z M306.5,46h2.6l-0.6-3.9h0L306.5,46z"/>
			<path class="st2" d="M327.2,39.4l-0.2,0.8c-1.2,0.1-1.2,0.2-1.4,1.8l-0.8,5.6c-0.2,1.5-0.1,1.5,1.1,1.7l-0.1,0.8H321l0.2-0.8
				c1.2-0.1,1.3-0.2,1.5-1.7l1.1-6.5h-0.1l-4.4,8.7h-0.6l-1-8.6h0l-1,4.5c-0.4,1.6-0.5,2.2-0.5,2.6c-0.1,0.6,0.2,0.9,1.1,1L317,50
				h-3.7l0.2-0.8c0.7-0.1,1.1-0.3,1.3-0.9c0.2-0.5,0.4-1.2,0.8-2.7l0.9-3.4c0.5-1.8,0.4-1.9-0.8-2l0.2-0.8h3.4l1,6.4l3.5-6.4H327.2z
				"/>
			<path class="st2" d="M336.4,39.4c-0.1,0.5-0.2,1.6-0.3,2.7l-0.7,0c0-0.6-0.1-1-0.3-1.3c-0.2-0.3-0.5-0.5-1.4-0.5h-0.8
				c-0.6,0-0.6,0-0.7,0.6l-0.5,3h1.3c1,0,1.1-0.1,1.4-1.2h0.7l-0.6,3.4h-0.7c0-1.1,0-1.2-1-1.2h-1.3l-0.4,2.3
				c-0.2,0.9-0.1,1.4,0.1,1.5c0.2,0.2,0.6,0.2,1.2,0.2c0.8,0,1.4-0.1,1.8-0.5c0.3-0.3,0.7-0.9,1-1.5l0.7,0.2c-0.2,0.7-0.8,2.4-1,2.8
				h-7.8l0.1-0.8c1.2-0.1,1.3-0.2,1.6-1.6l1-5.8c0.2-1.4,0.2-1.6-1-1.6l0.1-0.8H336.4z"/>
			<path class="st2" d="M341.9,39.4l-0.2,0.8l-0.5,0.1c-0.5,0.1-0.7,0.2-0.6,1l0.3,5.3h0l3.3-6.9h0.8l1,6.9h0
				c0.9-1.9,1.7-3.8,2.3-5.3c0.3-0.8,0.2-1-0.3-1.1l-0.5-0.1l0.2-0.8h3.5l-0.1,0.8c-0.9,0.1-1.1,0.3-1.7,1.4
				c-1.3,2.5-2.6,5.4-4.1,8.6h-0.8l-1.1-6.6h0l-3.4,6.6h-0.8l-0.8-8.5c-0.1-1.2-0.3-1.3-1.2-1.4l0.2-0.8H341.9z"/>
			<path class="st2" d="M356.2,39.2c2.4,0,4,1.8,4,4.6c0,3.9-2.5,6.5-5.5,6.5c-2.5,0-4.1-1.8-4.1-4.5
				C350.7,42,353.2,39.2,356.2,39.2L356.2,39.2z M356.1,40.1c-1.7,0-2.9,3.2-2.9,6.4c0,1.4,0.4,2.8,1.7,2.8c1.9,0,2.9-3.7,2.9-6.4
				C357.8,41.4,357.3,40.1,356.1,40.1L356.1,40.1z"/>
			<path class="st2" d="M364.7,45.5l-0.4,2.2c-0.2,1.3-0.1,1.4,1,1.5l-0.1,0.8h-4.6l0.1-0.8c1.1-0.1,1.2-0.2,1.4-1.5l1-6
				c0.2-1.3,0.1-1.4-1-1.5l0.1-0.8h4.3c0.9,0,1.8,0.1,2.4,0.5c0.6,0.4,1,1,1,2.1c0,1.6-1.1,2.5-2.3,3c0.2,0.5,0.6,1.6,0.9,2.2
				c0.3,0.7,0.6,1.2,0.8,1.5c0.2,0.3,0.5,0.6,0.8,0.7l-0.2,0.6h-0.4c-2,0-2.5-0.6-2.9-1.5c-0.3-0.7-0.6-1.6-0.8-2.4
				c-0.2-0.5-0.4-0.7-0.9-0.7H364.7z M364.9,44.7h0.5c0.5,0,1-0.1,1.4-0.4c0.6-0.4,1-1.2,1-2.2c0-1.2-0.6-1.7-1.4-1.7
				c-0.6,0-0.7,0.2-0.8,0.7L364.9,44.7z"/>
			<path class="st2" d="M377.3,39.4l-0.1,0.8c-1,0.1-1.1,0.2-1.3,1.5l-0.4,2.5c0.2,0,0.5-0.2,0.9-0.5c0.9-0.8,1.9-2.1,2.4-2.7
				c0.3-0.4,0.4-0.7,0-0.8l-0.4-0.1l0.1-0.8h3.9l-0.1,0.8c-0.9,0.1-1.5,0.4-2.1,1c-0.7,0.6-1.7,1.6-2.5,2.5c0.7,1.8,1.5,3.6,2,4.6
				c0.4,0.8,0.7,1,1.3,1l-0.1,0.8h-2.9c-0.3-0.7-1.3-3.4-1.8-4.5c-0.2-0.6-0.5-0.6-0.8-0.6l-0.5,2.8c-0.2,1.3-0.1,1.4,1,1.5
				l-0.1,0.8H371l0.1-0.8c1.1,0,1.2-0.2,1.4-1.5l1-6c0.2-1.3,0.1-1.4-1-1.5l0.1-0.8H377.3z"/>
		</g>
	</g>
	<g>
		<g>
			<path d="M69.5,20.8c0.4,2.4,2.2,7,6.2,7c2.9,0,4.4-2.2,4.4-4.4c0-2.1-1-3.8-3.5-5.7l-1-0.7c-2.2-1.6-4.6-3.8-4.6-7
				c0-4.5,3.8-7.7,9-7.7c1.5,0,3.1,0.2,4.4,0.6c0.8,0.3,1.3,0.5,1.8,0.6C86.2,5.3,86,7,86,9.5l-1.6,0.1C84.1,7.2,83.2,4,79.6,4
				c-2.7,0-4,2.2-4,3.9c0,1.7,1.1,3.3,3.2,4.9l1.3,1c2.7,2.1,4.8,4.3,4.8,7.6c0,5.2-4.6,8.2-9.9,8.2c-3.4,0-6.5-1.4-7.1-2.4
				c0-1,0-3.3,0-6.2L69.5,20.8z"/>
			<path d="M106.2,9.6c-0.1,0.8-0.4,2.9-0.7,5l-1.6,0.1c-0.1-1.1-0.2-1.9-0.6-2.4c-0.3-0.6-1.1-0.9-3.1-0.9h-1.6
				c-1.3,0-1.3,0-1.5,1.1L95.9,18h2.7c2.2,0,2.3-0.2,3.1-2.2h1.6l-1.3,6.3h-1.6c0.1-2.1,0-2.2-2.2-2.2h-2.7l-0.9,4.2
				c-0.3,1.7-0.3,2.5,0.2,2.8c0.5,0.3,1.3,0.4,2.7,0.4c1.7,0,3-0.3,3.9-1c0.7-0.6,1.5-1.6,2.2-2.7l1.6,0.3c-0.5,1.2-1.8,4.3-2.2,5.2
				H86.1l0.3-1.4c2.6-0.2,2.8-0.4,3.4-2.9L91.9,14c0.5-2.6,0.4-2.9-2.1-3l0.3-1.4H106.2z"/>
			<path d="M137,9.6l-0.4,1.4c-2.5,0.3-2.7,0.4-3.1,3.2l-1.6,10.3c-0.4,2.7-0.2,2.8,2.4,3.1L134,29h-10.5l0.3-1.4
				c2.5-0.3,2.8-0.3,3.3-3.1l2.3-11.9h-0.1l-9.5,16h-1.4l-2.2-15.9h-0.1l-2.2,8.2c-0.8,2.9-1,4-1.1,4.8c-0.1,1.2,0.3,1.6,2.5,1.8
				l-0.4,1.4h-7.9l0.4-1.4c1.6-0.2,2.3-0.6,2.9-1.7c0.4-0.9,0.9-2.2,1.7-5l1.9-6.3c1-3.3,0.8-3.4-1.8-3.7l0.4-1.4h7.4l2.1,11.8
				l7.4-11.8H137z"/>
			<path d="M149.1,29l0.3-1.4l0.8-0.1c1.2-0.1,1.4-0.5,1.1-2l-0.3-2h-6.9c-0.2,0.5-0.7,1.2-1.3,2.3c-0.6,1.2-0.4,1.7,0.7,1.8
				l0.9,0.1l-0.3,1.4h-7.6l0.3-1.4c1.7-0.2,2.4-0.6,4-2.9l9.8-15.1l2.2-0.4l3.1,16c0.4,2.1,1,2.4,2.9,2.6l-0.3,1.4H149.1z
				 M145.1,21.6h5.6l-1.2-7.1h-0.1L145.1,21.6z"/>
			<path d="M180.7,2.8c1,0,1.3-0.2,2-1h1.1c-0.4,1.7-0.8,4.9-1.2,7.5L181,9.3c-0.1-1.9-0.3-3.1-0.7-3.7c-0.5-0.7-1.5-1-3.1-1h-1.6
				l-4,19.3c-0.7,3.2-0.4,3.5,3.1,3.8l-0.3,1.4h-12.3l0.3-1.4c3.2-0.2,3.6-0.6,4.2-3.8l4-19.3h-1.2c-2.2,0-3.2,0.5-4,1.3
				c-0.6,0.6-1.4,1.7-2.2,3.5l-1.6,0c0.8-2.8,1.6-5.5,2-7.6h1c0.4,0.9,0.8,1,1.8,1H180.7z"/>
			<path d="M189.7,20.7l-0.8,4.1c-0.5,2.4-0.1,2.6,2.2,2.7l-0.3,1.4h-9.9l0.3-1.4c2.4-0.2,2.6-0.4,3.1-2.7l2.3-11.1
				c0.5-2.4,0.2-2.6-2.1-2.8l0.3-1.4h9.3c2,0,3.9,0.2,5.2,1c1.2,0.7,2.1,1.9,2.1,3.8c0,2.9-2.3,4.6-4.9,5.5c0.4,0.9,1.2,2.9,1.9,4.1
				c0.7,1.3,1.2,2.2,1.7,2.8c0.5,0.6,1.1,1.1,1.6,1.3l-0.4,1.2h-0.8c-4.3,0-5.4-1.1-6.3-2.8c-0.7-1.3-1.3-3-1.8-4.5
				c-0.4-1-0.9-1.3-1.9-1.3H189.7z M190,19.2h1.1c1,0,2.1-0.1,3.1-0.7c1.3-0.7,2.1-2.2,2.1-4.1c0-2.2-1.3-3.2-3.1-3.2
				c-1.2,0-1.6,0.3-1.8,1.3L190,19.2z"/>
			<path d="M223.1,9.6c-0.1,0.8-0.4,2.9-0.7,5l-1.6,0.1c-0.1-1.1-0.2-1.9-0.6-2.4c-0.3-0.6-1.1-0.9-3.1-0.9h-1.6
				c-1.3,0-1.3,0-1.5,1.1l-1.1,5.5h2.7c2.2,0,2.3-0.2,3.1-2.2h1.6l-1.3,6.3h-1.6c0.1-2.1,0-2.2-2.2-2.2h-2.7l-0.9,4.2
				c-0.3,1.7-0.3,2.5,0.2,2.8c0.5,0.3,1.3,0.4,2.7,0.4c1.7,0,3-0.3,3.9-1c0.7-0.6,1.5-1.6,2.2-2.7l1.6,0.3c-0.5,1.2-1.8,4.3-2.2,5.2
				h-16.9l0.3-1.4c2.6-0.2,2.8-0.4,3.4-2.9l2.2-10.7c0.5-2.6,0.4-2.9-2.1-3l0.3-1.4H223.1z"/>
			<path d="M244,9.6c-0.1,0.8-0.4,2.9-0.7,5l-1.6,0.1c-0.1-1.1-0.2-1.9-0.6-2.4c-0.3-0.6-1.1-0.9-3.1-0.9h-1.6c-1.3,0-1.3,0-1.5,1.1
				l-1.1,5.5h2.7c2.2,0,2.3-0.2,3.1-2.2h1.6l-1.3,6.3h-1.6c0.1-2.1,0-2.2-2.2-2.2h-2.7l-0.9,4.2c-0.3,1.7-0.3,2.5,0.2,2.8
				c0.5,0.3,1.3,0.4,2.7,0.4c1.7,0,3-0.3,3.9-1c0.7-0.6,1.5-1.6,2.2-2.7l1.6,0.3c-0.5,1.2-1.8,4.3-2.2,5.2h-16.9l0.3-1.4
				c2.6-0.2,2.8-0.4,3.4-2.9l2.2-10.7c0.5-2.6,0.4-2.9-2.1-3l0.3-1.4H244z"/>
		</g>
	</g>
</g>
<g id="Layer_3">
	<g>
		<rect x="29" y="0" class="st8" width="29" height="29"/>
		<path class="st9" d="M49.5,7.6c3.6,3.6,3.6,9.5,0,13.2c-3.6,3.6-9.5,3.6-13.1,0c-3.6-3.6-3.6-9.5,0-13.2C40,3.9,45.9,3.9,49.5,7.6
			z"/>
		<g class="st10">
			<path class="st11" d="M55.6,15c3.2,3.2,3.2,8.4,0,11.6c-3.2,3.2-8.4,3.2-11.6,0c-3.2-3.2-3.2-8.4,0-11.6
				C47.2,11.8,52.4,11.8,55.6,15z"/>
			<path class="st12" d="M54.9,14.2c3.3,3.3,3.3,8.5,0,11.8c-3.3,3.3-8.5,3.3-11.8,0c-3.3-3.3-3.3-8.5,0-11.8
				C46.4,10.9,51.7,10.9,54.9,14.2z"/>
			<path class="st13" d="M54.3,13.4c3.3,3.3,3.3,8.7,0,12c-3.3,3.3-8.7,3.3-12,0c-3.3-3.3-3.3-8.7,0-12C45.6,10.1,51,10.1,54.3,13.4
				z"/>
			<path class="st14" d="M53.7,12.6c3.4,3.4,3.4,8.8,0,12.2c-3.4,3.4-8.8,3.4-12.2,0c-3.4-3.4-3.4-8.8,0-12.2
				C44.9,9.2,50.3,9.2,53.7,12.6z"/>
			<path class="st15" d="M53.1,11.8c3.4,3.4,3.4,9,0,12.4c-3.4,3.4-9,3.4-12.4,0c-3.4-3.4-3.4-9,0-12.4C44.1,8.4,49.7,8.4,53.1,11.8
				z"/>
			<path class="st16" d="M52.4,11c3.5,3.5,3.5,9.1,0,12.6c-3.5,3.5-9.1,3.5-12.6,0c-3.5-3.5-3.5-9.1,0-12.6C43.3,7.5,49,7.5,52.4,11
				z"/>
			<path class="st17" d="M51.8,10.2c3.5,3.5,3.5,9.2,0,12.8c-3.5,3.5-9.2,3.5-12.8,0c-3.5-3.5-3.5-9.2,0-12.8
				C42.6,6.7,48.3,6.7,51.8,10.2z"/>
			<path class="st18" d="M51.2,9.4c3.6,3.6,3.6,9.4,0,13c-3.6,3.6-9.4,3.6-12.9,0c-3.6-3.6-3.6-9.4,0-13C41.8,5.8,47.6,5.8,51.2,9.4
				z"/>
			<path class="st19" d="M50.6,8.6c3.6,3.6,3.6,9.5,0,13.2c-3.6,3.6-9.5,3.6-13.1,0c-3.6-3.6-3.6-9.5,0-13.2C41.1,5,46.9,5,50.6,8.6
				z"/>
		</g>
		<path class="st19" d="M50.6,8.6c3.6,3.6,3.6,9.5,0,13.2c-3.6,3.6-9.5,3.6-13.1,0c-3.6-3.6-3.6-9.5,0-13.2C41.1,5,46.9,5,50.6,8.6z
			"/>
		<linearGradient id="SVGID_1_" gradientUnits="userSpaceOnUse" x1="49.0112" y1="20.2079" x2="37.374" y2="8.5708">
			<stop  offset="0" style="stop-color:#FC751A"/>
			<stop  offset="1" style="stop-color:#F58700"/>
		</linearGradient>
		<path class="st20" d="M49.9,8c3.6,3.6,3.6,9.5,0,13.2c-3.6,3.6-9.5,3.6-13.1,0c-3.6-3.6-3.6-9.5,0-13.2C40.4,4.3,46.3,4.3,49.9,8z
			"/>
	</g>
	<g>
		<path class="st21" d="M29,29H9.2H0v-9.6c0,0,0-8.9,0-11.4c0-3.6,3.1-8,8-8c5,0,21,0,21,0V29z"/>
		<path class="st22" d="M20.5,7.6c3.6,3.6,3.6,9.5,0,13.2c-3.6,3.6-9.5,3.6-13.1,0c-3.6-3.6-3.6-9.5,0-13.2
			C11,3.9,16.9,3.9,20.5,7.6z"/>
		<g class="st10">
			<path class="st11" d="M25.1,13.8c5.5,3.5,5.1,11.7-1.2,14.6c-2,0.9-4.4,0.9-6.4,0c-6.3-2.9-6.7-11-1.2-14.6
				C19.1,12.1,22.5,12.1,25.1,13.8z"/>
			<path class="st23" d="M24.7,13.2c5.2,3.6,4.8,11.3-1,14.4c-2.2,1.2-5,1.2-7.2,0c-5.8-3.1-6.2-10.8-1-14.4
				C18.2,11.3,21.9,11.3,24.7,13.2z"/>
			<path class="st24" d="M24.3,12.5c5,3.6,4.6,10.9-0.9,14.2c-2.5,1.5-5.6,1.5-8.1,0c-5.5-3.3-5.8-10.6-0.9-14.2
				C17.3,10.4,21.3,10.4,24.3,12.5z"/>
			<path class="st25" d="M23.8,11.9c4.7,3.7,4.4,10.6-0.7,14c-2.7,1.8-6.2,1.8-8.9,0c-5.1-3.4-5.5-10.4-0.7-14
				C16.5,9.5,20.8,9.5,23.8,11.9z"/>
			<path class="st26" d="M23.4,11.2c4.5,3.7,4.2,10.4-0.6,13.9c-2.9,2.1-6.8,2.1-9.8,0C8.2,21.6,8,14.9,12.4,11.2
				C15.6,8.6,20.2,8.6,23.4,11.2z"/>
			<path class="st27" d="M22.9,10.6c4.3,3.7,4,10.1-0.4,13.7c-3.1,2.5-7.5,2.5-10.6,0c-4.5-3.5-4.7-10-0.4-13.7
				C14.7,7.7,19.6,7.7,22.9,10.6z"/>
			<path class="st28" d="M22.5,9.9c4,3.7,3.9,9.9-0.3,13.5c-3.3,2.8-8.1,2.8-11.4,0c-4.2-3.6-4.3-9.8-0.3-13.5
				C13.9,6.8,19.1,6.8,22.5,9.9z"/>
			<path class="st29" d="M22,9.3c3.8,3.7,3.7,9.7-0.1,13.3c-3.5,3.2-8.8,3.2-12.3,0c-3.9-3.6-4-9.7-0.1-13.3C13,5.9,18.5,5.9,22,9.3
				z"/>
			<path class="st30" d="M21.6,8.6c3.6,3.6,3.6,9.5,0,13.2c-3.6,3.6-9.5,3.6-13.1,0c-3.6-3.6-3.6-9.5,0-13.2C12.1,5,18,5,21.6,8.6z"
				/>
		</g>
		<path class="st31" d="M21.6,8.6c3.6,3.6,3.6,9.5,0,13.2c-3.6,3.6-9.5,3.6-13.1,0c-3.6-3.6-3.6-9.5,0-13.2C12.1,5,18,5,21.6,8.6z"
			/>
		<linearGradient id="SVGID_2_" gradientUnits="userSpaceOnUse" x1="20.032" y1="20.2082" x2="8.3952" y2="8.5715">
			<stop  offset="0" style="stop-color:#8CC63F"/>
			<stop  offset="1" style="stop-color:#ACD36E"/>
		</linearGradient>
		<path class="st32" d="M21,8c3.6,3.6,3.6,9.5,0,13.2c-3.6,3.6-9.5,3.6-13.1,0c-3.6-3.6-3.6-9.5,0-13.2C11.4,4.3,17.3,4.3,21,8z"/>
	</g>
	<g>
		<path class="st21" d="M50,58H29V29h29V50C58,54,54.2,58,50,58z"/>
		<path class="st22" d="M49.5,36.6c3.6,3.6,3.6,9.5,0,13.2c-3.6,3.6-9.5,3.6-13.1,0c-3.6-3.6-3.6-9.5,0-13.2
			C40,33,45.9,33,49.5,36.6z"/>
		<g class="st10">
			<path class="st11" d="M55.6,44c3.2,3.2,3.2,8.4,0,11.6c-3.2,3.2-8.4,3.2-11.6,0c-3.2-3.2-3.2-8.4,0-11.6
				C47.2,40.8,52.4,40.8,55.6,44z"/>
			<path class="st23" d="M54.9,43.2c3.3,3.3,3.3,8.5,0,11.8c-3.3,3.3-8.5,3.3-11.8,0c-3.3-3.3-3.3-8.5,0-11.8
				C46.4,40,51.7,40,54.9,43.2z"/>
			<path class="st24" d="M54.3,42.4c3.3,3.3,3.3,8.7,0,12c-3.3,3.3-8.7,3.3-12,0c-3.3-3.3-3.3-8.7,0-12C45.6,39.1,51,39.1,54.3,42.4
				z"/>
			<path class="st25" d="M53.7,41.6c3.4,3.4,3.4,8.8,0,12.2c-3.4,3.4-8.8,3.4-12.2,0c-3.4-3.4-3.4-8.8,0-12.2
				C44.9,38.3,50.3,38.3,53.7,41.6z"/>
			<path class="st26" d="M53.1,40.8c3.4,3.4,3.4,9,0,12.4c-3.4,3.4-9,3.4-12.4,0c-3.4-3.4-3.4-9,0-12.4
				C44.1,37.4,49.7,37.4,53.1,40.8z"/>
			<path class="st27" d="M52.4,40c3.5,3.5,3.5,9.1,0,12.6c-3.5,3.5-9.1,3.5-12.6,0c-3.5-3.5-3.5-9.1,0-12.6
				C43.4,36.6,49,36.6,52.4,40z"/>
			<path class="st28" d="M51.8,39.2c3.5,3.5,3.5,9.2,0,12.8c-3.5,3.5-9.2,3.5-12.8,0c-3.5-3.5-3.5-9.2,0-12.8
				C42.6,35.7,48.3,35.7,51.8,39.2z"/>
			<path class="st29" d="M51.2,38.4c3.6,3.6,3.6,9.4,0,13c-3.6,3.6-9.4,3.6-12.9,0c-3.6-3.6-3.6-9.4,0-13
				C41.8,34.9,47.6,34.9,51.2,38.4z"/>
			<path class="st30" d="M50.6,37.6c3.6,3.6,3.6,9.5,0,13.2c-3.6,3.6-9.5,3.6-13.1,0c-3.6-3.6-3.6-9.5,0-13.2
				C41.1,34,46.9,34,50.6,37.6z"/>
		</g>
		<path class="st31" d="M50.6,37.6c3.6,3.6,3.6,9.5,0,13.2c-3.6,3.6-9.5,3.6-13.1,0c-3.6-3.6-3.6-9.5,0-13.2
			C41.1,34,46.9,34,50.6,37.6z"/>
		<linearGradient id="SVGID_3_" gradientUnits="userSpaceOnUse" x1="49.0132" y1="49.2371" x2="37.3765" y2="37.6004">
			<stop  offset="0" style="stop-color:#8CC63F"/>
			<stop  offset="1" style="stop-color:#ACD36E"/>
		</linearGradient>
		<path class="st33" d="M49.9,37c3.6,3.6,3.6,9.5,0,13.2c-3.6,3.6-9.5,3.6-13.1,0c-3.6-3.6-3.6-9.5,0-13.2
			C40.4,33.4,46.3,33.4,49.9,37z"/>
	</g>
	<g>
		<rect y="29" class="st34" width="29" height="29"/>
		<path class="st35" d="M20.5,36.6c3.6,3.6,3.6,9.5,0,13.2c-3.6,3.6-9.5,3.6-13.1,0c-3.6-3.6-3.6-9.5,0-13.2
			C11,33,16.9,33,20.5,36.6z"/>
		<g class="st10">
			<path class="st11" d="M26.6,44c3.2,3.2,3.2,8.4,0,11.6c-3.2,3.2-8.4,3.2-11.6,0c-3.2-3.2-3.2-8.4,0-11.6
				C18.2,40.8,23.4,40.8,26.6,44z"/>
			<path class="st36" d="M26,43.2c3.3,3.3,3.3,8.5,0,11.8c-3.3,3.3-8.5,3.3-11.8,0c-3.3-3.3-3.3-8.5,0-11.8C17.4,40,22.7,40,26,43.2
				z"/>
			<path class="st37" d="M25.3,42.4c3.3,3.3,3.3,8.7,0,12c-3.3,3.3-8.7,3.3-12,0c-3.3-3.3-3.3-8.7,0-12C16.7,39.1,22,39.1,25.3,42.4
				z"/>
			<path class="st38" d="M24.7,41.6c3.4,3.4,3.4,8.8,0,12.2c-3.4,3.4-8.8,3.4-12.2,0c-3.4-3.4-3.4-8.8,0-12.2
				C15.9,38.3,21.3,38.3,24.7,41.6z"/>
			<path class="st39" d="M24.1,40.8c3.4,3.4,3.4,9,0,12.4c-3.4,3.4-9,3.4-12.4,0c-3.4-3.4-3.4-9,0-12.4
				C15.1,37.4,20.7,37.4,24.1,40.8z"/>
			<path class="st40" d="M23.5,40c3.5,3.5,3.5,9.1,0,12.6c-3.5,3.5-9.1,3.5-12.6,0c-3.5-3.5-3.5-9.1,0-12.6
				C14.4,36.6,20,36.6,23.5,40z"/>
			<path class="st41" d="M22.8,39.2c3.5,3.5,3.5,9.2,0,12.8c-3.5,3.5-9.2,3.5-12.8,0c-3.5-3.5-3.5-9.2,0-12.8
				C13.6,35.7,19.3,35.7,22.8,39.2z"/>
			<path class="st42" d="M22.2,38.4c3.6,3.6,3.6,9.4,0,13c-3.6,3.6-9.4,3.6-12.9,0c-3.6-3.6-3.6-9.4,0-13
				C12.8,34.9,18.6,34.9,22.2,38.4z"/>
			<path class="st43" d="M21.6,37.6c3.6,3.6,3.6,9.5,0,13.2c-3.6,3.6-9.5,3.6-13.1,0c-3.6-3.6-3.6-9.5,0-13.2
				C12.1,34,18,34,21.6,37.6z"/>
		</g>
		<path class="st44" d="M21.6,37.6c3.6,3.6,3.6,9.5,0,13.2c-3.6,3.6-9.5,3.6-13.1,0c-3.6-3.6-3.6-9.5,0-13.2
			C12.1,34,18,34,21.6,37.6z"/>
		<linearGradient id="SVGID_4_" gradientUnits="userSpaceOnUse" x1="20.031" y1="49.2247" x2="8.3947" y2="37.5883">
			<stop  offset="0" style="stop-color:#FBCC17"/>
			<stop  offset="1" style="stop-color:#FFD64D"/>
		</linearGradient>
		<path class="st45" d="M20.9,37c3.6,3.6,3.6,9.5,0,13.2c-3.6,3.6-9.5,3.6-13.1,0c-3.6-3.6-3.6-9.5,0-13.2
			C11.4,33.4,17.3,33.4,20.9,37z"/>
	</g>
</g>
</svg>
