<?xml version="1.0" encoding="utf-8"?>
<!-- Generator: Adobe Illustrator 19.1.0, SVG Export Plug-In . SVG Version: 6.00 Build 0)  -->
<svg version="1.1" xmlns="http://www.w3.org/2000/svg" xmlns:xlink="http://www.w3.org/1999/xlink" x="0px" y="0px"
	 viewBox="0 0 947 58" style="enable-background:new 0 0 947 58;" xml:space="preserve">
<style type="text/css">
	.st0{display:none;}
	.st1{display:inline;}
	.st2{fill:#666666;}
	.st3{font-family:'MinionMM-ItSC_578_wt_465__11_op';}
	.st4{font-size:22.3386px;}
	.st5{font-size:41px;}
	.st6{letter-spacing:-2.8;}
	.st7{letter-spacing:0.9;}
	.st8{fill:#F16D01;}
	.st9{fill:#FED09E;}
	.st10{opacity:0.7;}
	.st11{opacity:0;fill:#FFFFFF;}
	.st12{opacity:0.125;fill:#F1E6DF;}
	.st13{opacity:0.25;fill:#E3CDBF;}
	.st14{opacity:0.375;fill:#D5B49F;}
	.st15{opacity:0.5;fill:#C89B80;}
	.st16{opacity:0.625;fill:#BA8160;}
	.st17{opacity:0.75;fill:#AC6840;}
	.st18{opacity:0.875;fill:#9E4F20;}
	.st19{fill:#903600;}
	.st20{fill:url(#SVGID_1_);}
	.st21{fill:#8CC63F;}
	.st22{fill:#C8EA92;}
	.st23{opacity:0.125;fill:#EAEFE1;}
	.st24{opacity:0.25;fill:#D5DFC3;}
	.st25{opacity:0.375;fill:#BFCFA4;}
	.st26{opacity:0.5;fill:#AABF86;}
	.st27{opacity:0.625;fill:#95AF68;}
	.st28{opacity:0.75;fill:#809F4A;}
	.st29{opacity:0.875;fill:#6A8F2B;}
	.st30{fill:#557F0D;}
	.st31{fill:#527A14;}
	.st32{fill:url(#SVGID_2_);}
	.st33{fill:url(#SVGID_3_);}
	.st34{fill:#F3C108;}
	.st35{fill:#FFEA82;}
	.st36{opacity:0.125;fill:#EEEBDF;}
	.st37{opacity:0.25;fill:#DCD7BF;}
	.st38{opacity:0.375;fill:#CBC39F;}
	.st39{opacity:0.5;fill:#BAAF80;}
	.st40{opacity:0.625;fill:#A89B60;}
	.st41{opacity:0.75;fill:#978740;}
	.st42{opacity:0.875;fill:#857320;}
	.st43{fill:#745F00;}
	.st44{fill:#774F0D;}
	.st45{fill:url(#SVGID_4_);}
</style>
<g id="Layer_4">
</g>
<g id="Layer_2" class="st0">
	<g class="st1">
		<text transform="matrix(0.9173 0 0 1 68.3713 50)" class="st2 st3 st4">Application  Foundation  Framework</text>
	</g>
	<g class="st1">
		<text transform="matrix(1.0785 0 0 1 66.4999 28.9998)"><tspan x="0" y="0" class="st3 st5">Sem</tspan><tspan x="74.9" y="0" class="st3 st5 st6">a</tspan><tspan x="91.3" y="0" class="st3 st5 st7">T</tspan><tspan x="113.2" y="0" class="st3 st5">ree</tspan></text>
	</g>
</g>
<g id="Layer_5">
	<g>
		<g>
			<path class="st2" d="M359.7,41.3c-0.4,0.9-1.1,2.5-1.8,4.4c-0.6,1.7-0.4,2,1.7,2.3l-0.2,1.3h-7.2l0.2-1.3
				c1.7-0.2,2.2-0.5,3.8-3.7l9.5-19.8l1.8-0.5l0.7,6.1c0.5,4.8,1.1,9.7,1.6,14.3c0.4,3.2,0.8,3.5,2.5,3.7l-0.2,1.3h-8.4l0.2-1.3
				c1.8-0.2,2.1-0.5,2-2.2c-0.1-1.4-0.3-3.2-0.4-4.4H359.7z M365.2,39.4l-0.8-8.6h-0.1c-1.4,2.9-2.6,5.5-3.8,8.6H365.2z"/>
			<path class="st2" d="M384.2,30.8c1.9,0,3.5,0.3,4.6,1.1c1.1,0.8,1.7,2.1,1.7,4c0,3.7-2.8,6.2-6.8,6.5c-0.3,0-0.7,0-1.2-0.1
				l-1.7-0.5l-0.6,3.6c-0.4,2.2-0.2,2.4,2.1,2.6l-0.2,1.3h-8.4l0.2-1.3c1.9-0.2,2.1-0.4,2.5-2.6l1.9-10.5c0.4-2.3,0.2-2.5-1.7-2.6
				l0.3-1.3H384.2z M381.2,40.2c0.4,0.2,1,0.4,1.5,0.4c2,0,3.7-2.1,3.7-4.9c0-2.4-1.2-3.4-2.8-3.4c-1,0-1.2,0.4-1.4,1.2L381.2,40.2z
				"/>
			<path class="st2" d="M400.9,30.8c1.9,0,3.5,0.3,4.6,1.1c1.1,0.8,1.7,2.1,1.7,4c0,3.7-2.8,6.2-6.8,6.5c-0.3,0-0.7,0-1.2-0.1
				l-1.7-0.5l-0.6,3.6c-0.4,2.2-0.2,2.4,2.1,2.6l-0.2,1.3h-8.4l0.2-1.3c1.9-0.2,2.1-0.4,2.5-2.6l1.9-10.5c0.4-2.3,0.2-2.5-1.7-2.6
				l0.3-1.3H400.9z M397.9,40.2c0.4,0.2,1,0.4,1.5,0.4c2,0,3.7-2.1,3.7-4.9c0-2.4-1.2-3.4-2.8-3.4c-1,0-1.2,0.4-1.4,1.2L397.9,40.2z
				"/>
			<path class="st2" d="M407.4,49.2l0.3-1.3c2-0.2,2.2-0.4,2.7-2.7l1.8-10.4c0.4-2.3,0.2-2.5-1.7-2.7l0.3-1.3h8.2l-0.3,1.3
				c-2,0.2-2.2,0.4-2.7,2.7l-1.8,10c-0.2,1.4-0.2,2.1,0.3,2.4c0.4,0.3,1.1,0.4,2,0.4c1,0,1.9-0.3,2.6-1c0.5-0.6,1.1-1.5,1.8-2.8
				l1.3,0.3c-0.4,1.1-1.4,4.2-1.8,5.1H407.4z"/>
			<path class="st2" d="M433.9,30.8l-0.3,1.3c-1.8,0.2-2,0.4-2.4,2.6l-1.8,10.5c-0.4,2.2-0.1,2.4,1.8,2.6l-0.2,1.3h-8.2l0.3-1.3
				c1.9-0.2,2.1-0.4,2.5-2.6l1.9-10.5c0.4-2.3,0.2-2.5-1.8-2.6l0.3-1.3H433.9z"/>
			<path class="st2" d="M448.3,36.4c-0.1-3.3-1.3-4.5-3.1-4.5c-3.4,0-6.1,4.6-6.1,10c0,3.7,1.2,6.1,3.5,6.1c1.9,0,3.6-1.8,5.2-4.5
				L449,44c-0.6,1.7-1.6,4-2.1,4.9c-0.8,0.2-2.9,0.8-4.8,0.8c-4.3,0-7.4-3-7.4-8c0-7.1,5.1-11.4,10.9-11.4c1.8,0,3.7,0.6,4.5,0.9
				c-0.2,1.6-0.3,3.1-0.5,5.1L448.3,36.4z"/>
			<path class="st2" d="M459.1,49.2l0.2-1.3l0.7-0.1c0.9-0.1,1.1-0.5,0.9-1.9l-0.3-1.9h-5.6c-0.2,0.4-0.6,1.2-1,2.2
				c-0.5,1.1-0.3,1.6,0.6,1.7l0.8,0.1l-0.3,1.3H449l0.3-1.3c1.4-0.2,2-0.5,3.2-2.8l7.9-14.4l1.8-0.4l2.5,15.2c0.3,2,0.8,2.3,2.3,2.4
				l-0.3,1.3H459.1z M455.9,42.2h4.5l-1-6.8h-0.1L455.9,42.2z"/>
			<path class="st2" d="M481.6,30.8c0.8,0,1-0.2,1.4-0.7h0.7c-0.3,1.4-0.6,4.3-0.8,5.9l-1.3,0.1c0-1.6-0.2-2.3-0.5-2.8
				c-0.3-0.5-1.1-0.8-2.1-0.8h-1l-2.3,12.7c-0.4,2.3-0.2,2.5,2.1,2.7l-0.3,1.3H469l0.2-1.3c2-0.2,2.3-0.4,2.7-2.7l2.3-12.7h-0.7
				c-1.5,0-2.2,0.4-2.7,0.9c-0.5,0.5-0.9,1.4-1.5,2.8h-1.3c0.6-2.4,1.1-4.6,1.4-6h0.7c0.2,0.6,0.5,0.7,1.3,0.7H481.6z"/>
			<path class="st2" d="M493.9,30.8l-0.3,1.3c-1.8,0.2-2,0.4-2.4,2.6l-1.8,10.5c-0.4,2.2-0.1,2.4,1.8,2.6l-0.2,1.3h-8.2l0.2-1.3
				c1.9-0.2,2.1-0.4,2.5-2.6l1.9-10.5c0.4-2.3,0.2-2.5-1.8-2.6l0.3-1.3H493.9z"/>
			<path class="st2" d="M504.3,30.3c4.2,0,7,3.2,7,8c0,6.7-4.4,11.4-9.5,11.4c-4.4,0-7.1-3.2-7.1-7.9
				C494.6,35.3,499.1,30.3,504.3,30.3L504.3,30.3z M504.1,32c-2.9,0-5.1,5.5-5.1,11.1c0,2.5,0.7,4.9,2.9,4.9c3.4,0,5.1-6.4,5.1-11.1
				C507,34.3,506.3,32,504.1,32L504.1,32z"/>
			<path class="st2" d="M519.7,30.8l5.9,12.1h0.1l0.8-4.6c0.4-2.2,0.6-3.7,0.6-4.6c0-1.1-0.6-1.5-2.3-1.6l0.2-1.3h6.7l-0.3,1.3
				c-1.2,0.1-2,0.5-2.3,1.6c-0.3,0.9-0.6,2.4-1,4.6l-1.9,11h-1.8l-6.7-14.1h0l-1.1,6.4c-0.4,2.1-0.5,3.6-0.5,4.6
				c0,1.1,0.4,1.6,2.2,1.7l-0.2,1.3h-6.6l0.3-1.3c1.4-0.1,2-0.6,2.3-1.7c0.3-0.8,0.6-2.2,1-4.6l1-6c0.5-2.9,0.2-3.4-2-3.6l0.3-1.3
				H519.7z"/>
			<path class="st2" d="M561.9,24.3c-0.1,0.8-0.5,3.7-0.7,5.9l-1.3,0.1c-0.1-1.6-0.3-2.7-0.7-3.3c-0.4-0.6-1.3-1-3.1-1h-1.6
				c-1.1,0-1.1,0.1-1.4,1.3l-1.5,8.3h2.8c2.5,0,2.9-0.3,3.8-2.8h1.3l-1.4,7.9h-1.3c0.2-2.9-0.1-3.2-2.7-3.2h-2.8l-1.1,6.7
				c-0.5,3.1-0.4,3.4,2.4,3.7l-0.2,1.3h-9.5l0.2-1.3c2.2-0.2,2.5-0.6,3-3.7l2.7-14.9c0.5-3.1,0.3-3.4-2-3.6l0.3-1.3H561.9z"/>
			<path class="st2" d="M570.7,30.3c4.2,0,7,3.2,7,8c0,6.7-4.4,11.4-9.5,11.4c-4.4,0-7.1-3.2-7.1-7.9
				C561,35.3,565.5,30.3,570.7,30.3L570.7,30.3z M570.5,32c-2.9,0-5.1,5.5-5.1,11.1c0,2.5,0.7,4.9,2.9,4.9c3.4,0,5.1-6.4,5.1-11.1
				C573.4,34.3,572.7,32,570.5,32L570.5,32z"/>
			<path class="st2" d="M589.1,30.8l-0.3,1.3c-1.8,0.2-2,0.4-2.5,3l-1,6c-0.8,4.4,0.4,6.3,2.7,6.3c2.5,0,4.1-2.8,4.9-7.2l0.3-1.7
				c0.5-2.8,0.6-3.9,0.6-4.8c0-1.1-0.5-1.5-2.1-1.6l0.2-1.3h6.5l-0.2,1.3c-1.3,0.1-1.9,0.5-2.3,1.7c-0.3,0.9-0.6,2.1-1.1,4.8
				l-0.4,2.4c-0.4,2.4-1.3,5.1-2.9,6.7c-1.2,1.3-3,1.9-4.7,1.9c-1.7,0-3.4-0.4-4.3-1.5c-1.1-1.2-1.8-3.2-1.2-6.6l1.2-6.4
				c0.5-2.6,0.3-2.8-1.8-3l0.3-1.3H589.1z"/>
			<path class="st2" d="M604.7,30.8l5.9,12.1h0.1l0.8-4.6c0.4-2.2,0.6-3.7,0.6-4.6c0-1.1-0.6-1.5-2.3-1.6l0.2-1.3h6.7l-0.3,1.3
				c-1.2,0.1-2,0.5-2.3,1.6c-0.3,0.9-0.6,2.4-1,4.6l-1.9,11h-1.8l-6.7-14.1h0l-1.1,6.4c-0.4,2.1-0.5,3.6-0.5,4.6
				c0,1.1,0.4,1.6,2.2,1.7l-0.2,1.3h-6.6l0.3-1.3c1.4-0.1,2-0.6,2.3-1.7c0.3-0.8,0.6-2.2,1-4.6l1-6c0.5-2.9,0.2-3.4-2-3.6l0.3-1.3
				H604.7z"/>
			<path class="st2" d="M625.6,30.8c2.3,0,4.6,0.5,6,1.6c1.6,1.2,2.6,3.2,2.6,6.1c0,3.8-1.7,7-4.5,8.9c-2.1,1.4-4.8,1.9-7.6,1.9
				h-6.6l0.2-1.3c1.9-0.2,2.1-0.4,2.5-2.7l1.8-10.2c0.4-2.4,0.2-2.6-1.7-2.8l0.3-1.3H625.6z M622.2,44.8c-0.3,2-0.2,2.8,1.2,2.8
				c3.6,0,6.5-4.1,6.5-9.5c0-3.9-1.5-5.7-4.2-5.7c-0.6,0-1,0.2-1.2,0.4c-0.2,0.2-0.3,0.6-0.5,1.3L622.2,44.8z"/>
			<path class="st2" d="M643,49.2l0.2-1.3l0.7-0.1c0.9-0.1,1.1-0.5,0.9-1.9l-0.3-1.9H639c-0.2,0.4-0.6,1.2-1,2.2
				c-0.5,1.1-0.3,1.6,0.6,1.7l0.8,0.1l-0.3,1.3h-6.2l0.3-1.3c1.4-0.2,2-0.5,3.2-2.8l7.9-14.4l1.8-0.4l2.5,15.2
				c0.3,2,0.8,2.3,2.3,2.4l-0.3,1.3H643z M639.8,42.2h4.5l-1-6.8h-0.1L639.8,42.2z"/>
			<path class="st2" d="M665.5,30.8c0.8,0,1-0.2,1.4-0.7h0.7c-0.3,1.4-0.6,4.3-0.8,5.9l-1.3,0.1c0-1.6-0.2-2.3-0.5-2.8
				c-0.3-0.5-1.1-0.8-2.1-0.8h-1l-2.3,12.7c-0.4,2.3-0.2,2.5,2.1,2.7l-0.3,1.3h-8.7l0.2-1.3c2-0.2,2.3-0.4,2.7-2.7l2.3-12.7h-0.7
				c-1.5,0-2.2,0.4-2.7,0.9c-0.5,0.5-0.9,1.4-1.5,2.8H652c0.6-2.4,1.1-4.6,1.4-6h0.7c0.2,0.6,0.5,0.7,1.3,0.7H665.5z"/>
			<path class="st2" d="M677.8,30.8l-0.3,1.3c-1.8,0.2-2,0.4-2.4,2.6l-1.8,10.5c-0.4,2.2-0.1,2.4,1.8,2.6l-0.2,1.3h-8.2l0.3-1.3
				c1.9-0.2,2.1-0.4,2.5-2.6l1.9-10.5c0.4-2.3,0.2-2.5-1.8-2.6l0.3-1.3H677.8z"/>
			<path class="st2" d="M688.1,30.3c4.2,0,7,3.2,7,8c0,6.7-4.4,11.4-9.5,11.4c-4.4,0-7.1-3.2-7.1-7.9
				C678.5,35.3,683,30.3,688.1,30.3L688.1,30.3z M688,32c-2.9,0-5.1,5.5-5.1,11.1c0,2.5,0.7,4.9,2.9,4.9c3.4,0,5.1-6.4,5.1-11.1
				C690.9,34.3,690.1,32,688,32L688,32z"/>
			<path class="st2" d="M703.6,30.8l5.9,12.1h0.1l0.8-4.6c0.4-2.2,0.6-3.7,0.6-4.6c0-1.1-0.6-1.5-2.3-1.6l0.2-1.3h6.7l-0.3,1.3
				c-1.2,0.1-2,0.5-2.3,1.6c-0.3,0.9-0.6,2.4-1,4.6l-1.9,11h-1.8l-6.7-14.1h0l-1.1,6.4c-0.4,2.1-0.5,3.6-0.5,4.6
				c0,1.1,0.4,1.6,2.2,1.7l-0.2,1.3h-6.6l0.2-1.3c1.4-0.1,2-0.6,2.3-1.7c0.3-0.8,0.6-2.2,1-4.6l1-6c0.5-2.9,0.2-3.4-2-3.6l0.3-1.3
				H703.6z"/>
			<path class="st2" d="M745.8,24.3c-0.1,0.8-0.5,3.7-0.7,5.9l-1.3,0.1c-0.1-1.6-0.3-2.7-0.7-3.3c-0.4-0.6-1.3-1-3.1-1h-1.6
				c-1.1,0-1.1,0.1-1.4,1.3l-1.5,8.3h2.8c2.5,0,2.9-0.3,3.8-2.8h1.3l-1.4,7.9h-1.3c0.2-2.9-0.1-3.2-2.7-3.2h-2.8l-1.1,6.7
				c-0.5,3.1-0.4,3.4,2.4,3.7l-0.2,1.3h-9.5l0.2-1.3c2.2-0.2,2.5-0.6,3-3.7l2.7-14.9c0.5-3.1,0.3-3.4-2-3.6l0.3-1.3H745.8z"/>
			<path class="st2" d="M750.2,41.4l-0.7,3.9c-0.4,2.3-0.1,2.4,1.8,2.6l-0.2,1.3h-8l0.2-1.3c1.9-0.2,2.1-0.4,2.5-2.6l1.8-10.5
				c0.4-2.3,0.2-2.5-1.7-2.6l0.2-1.3h7.5c1.6,0,3.1,0.2,4.2,0.9c1,0.7,1.7,1.8,1.7,3.6c0,2.7-1.8,4.4-4,5.2c0.3,0.9,1,2.7,1.5,3.9
				c0.6,1.3,1,2.1,1.4,2.7c0.4,0.6,0.9,1,1.3,1.2l-0.3,1.1h-0.7c-3.4,0-4.4-1.1-5.1-2.6c-0.5-1.2-1-2.8-1.5-4.2
				c-0.3-1-0.7-1.2-1.6-1.2H750.2z M750.5,39.9h0.9c0.8,0,1.7-0.1,2.5-0.6c1-0.7,1.7-2.1,1.7-3.9c0-2.1-1.1-3-2.5-3
				c-1,0-1.3,0.3-1.5,1.3L750.5,39.9z"/>
			<path class="st2" d="M771.2,49.2l0.2-1.3l0.7-0.1c0.9-0.1,1.1-0.5,0.9-1.9l-0.3-1.9h-5.6c-0.2,0.4-0.6,1.2-1,2.2
				c-0.5,1.1-0.3,1.6,0.6,1.7l0.8,0.1l-0.3,1.3h-6.2l0.3-1.3c1.4-0.2,2-0.5,3.2-2.8l7.9-14.4l1.8-0.4l2.5,15.2
				c0.3,2,0.8,2.3,2.3,2.4l-0.3,1.3H771.2z M768,42.2h4.5l-1-6.8h-0.1L768,42.2z"/>
			<path class="st2" d="M804.1,30.8l-0.3,1.3c-2,0.2-2.1,0.4-2.5,3.1L800,45c-0.4,2.6-0.1,2.7,1.9,2.9l-0.3,1.3h-8.5l0.3-1.3
				c2-0.2,2.2-0.3,2.7-2.9l1.9-11.3h-0.1l-7.7,15.2h-1.1l-1.8-15.1h-0.1l-1.8,7.8c-0.7,2.8-0.8,3.8-0.9,4.6c-0.1,1.1,0.3,1.5,2,1.7
				l-0.3,1.3h-6.4l0.3-1.3c1.3-0.2,1.9-0.5,2.3-1.6c0.3-0.8,0.7-2.1,1.4-4.7l1.5-6c0.8-3.1,0.7-3.2-1.5-3.5l0.3-1.3h6L792,42l6-11.2
				H804.1z"/>
			<path class="st2" d="M820.1,30.8c-0.1,0.8-0.4,2.7-0.6,4.7l-1.3,0.1c-0.1-1.1-0.2-1.8-0.5-2.3c-0.3-0.5-0.9-0.9-2.5-0.9h-1.3
				c-1,0-1,0-1.2,1.1l-0.9,5.2h2.2c1.8,0,1.9-0.2,2.5-2.1h1.3l-1.1,6h-1.3c0.1-2,0-2.1-1.8-2.1h-2.2l-0.7,4
				c-0.3,1.6-0.2,2.4,0.2,2.7c0.4,0.3,1.1,0.4,2.2,0.4c1.3,0,2.4-0.2,3.1-0.9c0.6-0.6,1.2-1.5,1.8-2.6l1.3,0.3
				c-0.4,1.1-1.5,4.1-1.8,4.9h-13.7l0.2-1.3c2.1-0.2,2.3-0.4,2.7-2.8l1.8-10.1c0.4-2.5,0.3-2.7-1.7-2.9l0.2-1.3H820.1z"/>
			<path class="st2" d="M829.8,30.8l-0.3,1.4l-0.8,0.1c-1,0.2-1.2,0.3-1.1,1.8l0.6,9.3h0.1l5.8-12.1h1.4l1.7,12.1h0.1
				c1.5-3.3,3-6.6,4-9.2c0.5-1.4,0.4-1.7-0.5-1.9l-0.9-0.1l0.3-1.4h6.1l-0.3,1.4c-1.6,0.3-1.9,0.5-2.9,2.4
				c-2.3,4.4-4.6,9.5-7.2,14.9h-1.4l-1.8-11.6h-0.1l-5.9,11.6h-1.3l-1.4-14.9c-0.2-2.1-0.5-2.3-2-2.5l0.3-1.3H829.8z"/>
			<path class="st2" d="M854.6,30.3c4.2,0,7,3.2,7,8c0,6.7-4.4,11.4-9.5,11.4c-4.4,0-7.1-3.2-7.1-7.9
				C845,35.3,849.4,30.3,854.6,30.3L854.6,30.3z M854.4,32c-2.9,0-5.1,5.5-5.1,11.1c0,2.5,0.7,4.9,2.9,4.9c3.4,0,5.1-6.4,5.1-11.1
				C857.3,34.3,856.6,32,854.4,32L854.4,32z"/>
			<path class="st2" d="M869.4,41.4l-0.7,3.9c-0.4,2.3-0.1,2.4,1.8,2.6l-0.2,1.3h-8l0.2-1.3c1.9-0.2,2.1-0.4,2.5-2.6l1.8-10.5
				c0.4-2.3,0.2-2.5-1.7-2.6l0.2-1.3h7.5c1.6,0,3.1,0.2,4.2,0.9c1,0.7,1.7,1.8,1.7,3.6c0,2.7-1.8,4.4-4,5.2c0.3,0.9,1,2.7,1.5,3.9
				c0.6,1.3,1,2.1,1.4,2.7c0.4,0.6,0.9,1,1.3,1.2l-0.3,1.1h-0.7c-3.4,0-4.4-1.1-5.1-2.6c-0.5-1.2-1-2.8-1.5-4.2
				c-0.3-1-0.7-1.2-1.6-1.2H869.4z M869.7,39.9h0.9c0.8,0,1.7-0.1,2.5-0.6c1-0.7,1.7-2.1,1.7-3.9c0-2.1-1.1-3-2.5-3
				c-1,0-1.3,0.3-1.5,1.3L869.7,39.9z"/>
			<path class="st2" d="M891.3,30.8l-0.2,1.3c-1.7,0.2-1.9,0.4-2.3,2.6l-0.8,4.4c0.4-0.1,0.8-0.3,1.5-0.9c1.6-1.4,3.3-3.6,4.2-4.7
				c0.6-0.7,0.8-1.2,0-1.3l-0.6-0.1l0.2-1.3h6.7l-0.3,1.3c-1.6,0.2-2.5,0.7-3.7,1.7c-1.1,1-3,2.8-4.3,4.3c1.2,3.1,2.7,6.3,3.5,8
				c0.7,1.3,1.2,1.7,2.3,1.8l-0.3,1.3h-5.1c-0.5-1.3-2.3-5.9-3.1-7.8c-0.4-1-0.8-1.1-1.4-1.1l-0.8,4.9c-0.4,2.3-0.2,2.4,1.8,2.6
				l-0.3,1.3h-8l0.3-1.3c1.9-0.1,2.1-0.4,2.5-2.6l1.8-10.5c0.4-2.3,0.2-2.5-1.8-2.6l0.2-1.3H891.3z"/>
		</g>
	</g>
	<g>
		<g>
			<path d="M80.2,37.2c0.6,3.4,3.2,10,8.9,10c4.2,0,6.4-3.2,6.4-6.2c0-3-1.4-5.4-4.9-8.1l-1.4-1.1c-3.1-2.3-6.6-5.4-6.6-10
				c0-6.5,5.5-11,12.9-11c2.2,0,4.5,0.3,6.2,0.9c1.1,0.4,1.9,0.7,2.6,0.9c-0.2,2.5-0.4,4.9-0.5,8.5l-2.3,0.2
				c-0.5-3.5-1.7-8.1-6.8-8.1c-3.8,0-5.7,3.1-5.7,5.7c0,2.5,1.5,4.7,4.6,6.9l1.9,1.4c3.9,3,6.8,6.1,6.8,10.8
				c0,7.5-6.6,11.7-14.1,11.7c-4.9,0-9.3-2-10.2-3.4c-0.1-1.5,0-4.7,0-8.9L80.2,37.2z"/>
			<path d="M132.7,21.2c-0.2,1.2-0.6,4.1-1,7.1l-2.3,0.1c-0.2-1.6-0.4-2.7-0.8-3.4c-0.5-0.8-1.6-1.3-4.4-1.3h-2.3
				c-1.8,0-1.9,0-2.2,1.6l-1.6,7.9h3.9c3.2,0,3.4-0.3,4.5-3.2h2.3l-1.9,9h-2.3c0.1-3,0-3.2-3.2-3.2h-3.9l-1.2,6
				c-0.5,2.4-0.4,3.6,0.3,4c0.8,0.5,1.9,0.6,3.8,0.6c2.4,0,4.3-0.4,5.5-1.4c1-0.9,2.2-2.3,3.2-3.9l2.3,0.4c-0.7,1.7-2.6,6.2-3.2,7.4
				h-24.2l0.4-2c3.7-0.3,4.1-0.6,4.8-4.2l3.2-15.3c0.8-3.8,0.5-4.1-3-4.3l0.4-2H132.7z"/>
			<path d="M176.7,21.2l-0.5,2c-3.6,0.4-3.8,0.6-4.4,4.6l-2.3,14.8c-0.6,3.9-0.3,4,3.4,4.4l-0.4,2h-15l0.5-2
				c3.6-0.4,3.9-0.5,4.7-4.4l3.3-17h-0.2l-13.6,22.9h-1.9L147,25.8h-0.1l-3.2,11.7c-1.2,4.2-1.5,5.7-1.6,6.9
				c-0.2,1.7,0.5,2.3,3.5,2.6l-0.5,2h-11.3l0.5-2c2.3-0.2,3.3-0.8,4.1-2.4c0.6-1.3,1.3-3.2,2.5-7.1l2.7-9c1.4-4.7,1.2-4.9-2.6-5.2
				l0.6-2h10.6l3.1,16.8l10.7-16.8H176.7z"/>
			<path d="M194.1,49l0.4-2l1.2-0.1c1.7-0.2,2-0.8,1.6-2.9l-0.5-2.9H187c-0.4,0.7-1,1.8-1.8,3.2c-0.9,1.7-0.6,2.4,1,2.6l1.4,0.1
				l-0.5,2h-10.9l0.5-2c2.4-0.3,3.5-0.8,5.7-4.2l14.1-21.7l3.2-0.6l4.5,22.8c0.6,3,1.4,3.4,4.2,3.7l-0.5,2H194.1z M188.4,38.4h8
				l-1.7-10.2h-0.1L188.4,38.4z"/>
			<path d="M239.4,11.5c1.4,0,1.9-0.4,2.9-1.5h1.5c-0.5,2.4-1.2,7-1.7,10.7l-2.3,0.1c-0.1-2.8-0.4-4.4-1.1-5.3
				c-0.7-1-2.1-1.5-4.4-1.5H232l-5.8,27.6c-0.9,4.5-0.6,5,4.4,5.4l-0.4,2h-17.6l0.4-2c4.5-0.4,5.1-0.9,6.1-5.4l5.7-27.6h-1.7
				c-3.1,0-4.6,0.8-5.7,1.8c-0.9,0.9-1.9,2.5-3.2,5.1l-2.3,0c1.2-4,2.3-7.9,2.9-10.9h1.5c0.6,1.3,1.1,1.5,2.5,1.5H239.4z"/>
			<path d="M252.2,37.2l-1.2,5.9c-0.7,3.4-0.2,3.7,3.1,3.9l-0.4,2h-14.2l0.4-2c3.4-0.3,3.7-0.6,4.4-3.9l3.2-15.9
				c0.7-3.5,0.3-3.7-3-4l0.4-2h13.2c2.9,0,5.6,0.3,7.5,1.4c1.7,1,3,2.7,3,5.4c0,4.1-3.3,6.6-7.1,7.8c0.5,1.3,1.8,4.1,2.7,5.9
				c1,1.9,1.8,3.1,2.5,4c0.8,0.9,1.6,1.5,2.3,1.8l-0.5,1.7h-1.2c-6.1,0-7.7-1.6-9-3.9c-0.9-1.8-1.8-4.2-2.6-6.4
				c-0.5-1.4-1.3-1.8-2.8-1.8H252.2z M252.7,34.9h1.6c1.5,0,3-0.2,4.4-1c1.8-1,3-3.2,3-5.9c0-3.1-1.9-4.5-4.4-4.5
				c-1.8,0-2.2,0.4-2.6,1.9L252.7,34.9z"/>
			<path d="M300,21.2c-0.2,1.2-0.6,4.1-1,7.1l-2.3,0.1c-0.2-1.6-0.4-2.7-0.8-3.4c-0.5-0.8-1.6-1.3-4.4-1.3h-2.3
				c-1.8,0-1.9,0-2.2,1.6l-1.6,7.9h3.9c3.2,0,3.4-0.3,4.5-3.2h2.3l-1.9,9h-2.3c0.1-3,0-3.2-3.2-3.2h-3.9l-1.2,6
				c-0.5,2.4-0.4,3.6,0.3,4c0.8,0.5,1.9,0.6,3.8,0.6c2.4,0,4.3-0.4,5.5-1.4c1-0.9,2.2-2.3,3.2-3.9l2.3,0.4c-0.7,1.7-2.6,6.2-3.2,7.4
				h-24.2l0.4-2c3.7-0.3,4.1-0.6,4.8-4.2l3.2-15.3c0.8-3.8,0.5-4.1-3-4.3l0.4-2H300z"/>
			<path d="M329.9,21.2c-0.2,1.2-0.6,4.1-1,7.1l-2.3,0.1c-0.2-1.6-0.4-2.7-0.8-3.4c-0.5-0.8-1.6-1.3-4.4-1.3H319
				c-1.8,0-1.9,0-2.2,1.6l-1.6,7.9h3.9c3.2,0,3.4-0.3,4.5-3.2h2.3l-1.9,9h-2.3c0.1-3,0-3.2-3.2-3.2h-3.9l-1.2,6
				c-0.5,2.4-0.4,3.6,0.3,4c0.8,0.5,1.9,0.6,3.8,0.6c2.4,0,4.3-0.4,5.5-1.4c1-0.9,2.2-2.3,3.2-3.9l2.3,0.4c-0.7,1.7-2.6,6.2-3.2,7.4
				H301l0.4-2c3.7-0.3,4.1-0.6,4.8-4.2l3.2-15.3c0.8-3.8,0.5-4.1-3-4.3l0.4-2H329.9z"/>
		</g>
	</g>
</g>
<g id="Layer_3">
	<g>
		<rect x="29" y="0" class="st8" width="29" height="29"/>
		<path class="st9" d="M49.5,7.6c3.6,3.6,3.6,9.5,0,13.2c-3.6,3.6-9.5,3.6-13.1,0c-3.6-3.6-3.6-9.5,0-13.2C40,3.9,45.9,3.9,49.5,7.6
			z"/>
		<g class="st10">
			<path class="st11" d="M55.6,15c3.2,3.2,3.2,8.4,0,11.6c-3.2,3.2-8.4,3.2-11.6,0c-3.2-3.2-3.2-8.4,0-11.6
				C47.2,11.8,52.4,11.8,55.6,15z"/>
			<path class="st12" d="M54.9,14.2c3.3,3.3,3.3,8.5,0,11.8c-3.3,3.3-8.5,3.3-11.8,0c-3.3-3.3-3.3-8.5,0-11.8
				C46.4,10.9,51.7,10.9,54.9,14.2z"/>
			<path class="st13" d="M54.3,13.4c3.3,3.3,3.3,8.7,0,12c-3.3,3.3-8.7,3.3-12,0c-3.3-3.3-3.3-8.7,0-12C45.6,10.1,51,10.1,54.3,13.4
				z"/>
			<path class="st14" d="M53.7,12.6c3.4,3.4,3.4,8.8,0,12.2c-3.4,3.4-8.8,3.4-12.2,0c-3.4-3.4-3.4-8.8,0-12.2
				C44.9,9.2,50.3,9.2,53.7,12.6z"/>
			<path class="st15" d="M53.1,11.8c3.4,3.4,3.4,9,0,12.4c-3.4,3.4-9,3.4-12.4,0c-3.4-3.4-3.4-9,0-12.4C44.1,8.4,49.7,8.4,53.1,11.8
				z"/>
			<path class="st16" d="M52.4,11c3.5,3.5,3.5,9.1,0,12.6c-3.5,3.5-9.1,3.5-12.6,0c-3.5-3.5-3.5-9.1,0-12.6C43.3,7.5,49,7.5,52.4,11
				z"/>
			<path class="st17" d="M51.8,10.2c3.5,3.5,3.5,9.2,0,12.8c-3.5,3.5-9.2,3.5-12.8,0c-3.5-3.5-3.5-9.2,0-12.8
				C42.6,6.7,48.3,6.7,51.8,10.2z"/>
			<path class="st18" d="M51.2,9.4c3.6,3.6,3.6,9.4,0,13c-3.6,3.6-9.4,3.6-12.9,0c-3.6-3.6-3.6-9.4,0-13C41.8,5.8,47.6,5.8,51.2,9.4
				z"/>
			<path class="st19" d="M50.6,8.6c3.6,3.6,3.6,9.5,0,13.2c-3.6,3.6-9.5,3.6-13.1,0c-3.6-3.6-3.6-9.5,0-13.2C41.1,5,46.9,5,50.6,8.6
				z"/>
		</g>
		<path class="st19" d="M50.6,8.6c3.6,3.6,3.6,9.5,0,13.2c-3.6,3.6-9.5,3.6-13.1,0c-3.6-3.6-3.6-9.5,0-13.2C41.1,5,46.9,5,50.6,8.6z
			"/>
		<linearGradient id="SVGID_1_" gradientUnits="userSpaceOnUse" x1="49.0104" y1="20.2079" x2="37.3732" y2="8.5708">
			<stop  offset="0" style="stop-color:#FC751A"/>
			<stop  offset="1" style="stop-color:#F58700"/>
		</linearGradient>
		<path class="st20" d="M49.9,8c3.6,3.6,3.6,9.5,0,13.2c-3.6,3.6-9.5,3.6-13.1,0c-3.6-3.6-3.6-9.5,0-13.2C40.4,4.3,46.3,4.3,49.9,8z
			"/>
	</g>
	<g>
		<path class="st21" d="M29,29H9.2H0v-9.6c0,0,0-8.9,0-11.4c0-3.6,3.1-8,8-8c5,0,21,0,21,0V29z"/>
		<path class="st22" d="M20.5,7.6c3.6,3.6,3.6,9.5,0,13.2c-3.6,3.6-9.5,3.6-13.1,0c-3.6-3.6-3.6-9.5,0-13.2
			C11,3.9,16.9,3.9,20.5,7.6z"/>
		<g class="st10">
			<path class="st11" d="M25.1,13.8c5.5,3.5,5.1,11.7-1.2,14.6c-2,0.9-4.4,0.9-6.4,0c-6.3-2.9-6.7-11-1.2-14.6
				C19.1,12.1,22.5,12.1,25.1,13.8z"/>
			<path class="st23" d="M24.7,13.2c5.2,3.6,4.8,11.3-1,14.4c-2.2,1.2-5,1.2-7.2,0c-5.8-3.1-6.2-10.8-1-14.4
				C18.2,11.3,21.9,11.3,24.7,13.2z"/>
			<path class="st24" d="M24.3,12.5c5,3.6,4.6,10.9-0.9,14.2c-2.5,1.5-5.6,1.5-8.1,0c-5.5-3.3-5.8-10.6-0.9-14.2
				C17.3,10.4,21.3,10.4,24.3,12.5z"/>
			<path class="st25" d="M23.8,11.9c4.7,3.7,4.4,10.6-0.7,14c-2.7,1.8-6.2,1.8-8.9,0c-5.1-3.4-5.5-10.4-0.7-14
				C16.5,9.5,20.8,9.5,23.8,11.9z"/>
			<path class="st26" d="M23.4,11.2c4.5,3.7,4.2,10.4-0.6,13.9c-2.9,2.1-6.8,2.1-9.8,0C8.2,21.6,8,14.9,12.4,11.2
				C15.6,8.6,20.2,8.6,23.4,11.2z"/>
			<path class="st27" d="M22.9,10.6c4.3,3.7,4,10.1-0.4,13.7c-3.1,2.5-7.5,2.5-10.6,0c-4.5-3.5-4.7-10-0.4-13.7
				C14.7,7.7,19.6,7.7,22.9,10.6z"/>
			<path class="st28" d="M22.5,9.9c4,3.7,3.9,9.9-0.3,13.5c-3.3,2.8-8.1,2.8-11.4,0c-4.2-3.6-4.3-9.8-0.3-13.5
				C13.9,6.8,19.1,6.8,22.5,9.9z"/>
			<path class="st29" d="M22,9.3c3.8,3.7,3.7,9.7-0.1,13.3c-3.5,3.2-8.8,3.2-12.3,0c-3.9-3.6-4-9.7-0.1-13.3C13,5.9,18.5,5.9,22,9.3
				z"/>
			<path class="st30" d="M21.6,8.6c3.6,3.6,3.6,9.5,0,13.2c-3.6,3.6-9.5,3.6-13.1,0c-3.6-3.6-3.6-9.5,0-13.2C12.1,5,18,5,21.6,8.6z"
				/>
		</g>
		<path class="st31" d="M21.6,8.6c3.6,3.6,3.6,9.5,0,13.2c-3.6,3.6-9.5,3.6-13.1,0c-3.6-3.6-3.6-9.5,0-13.2C12.1,5,18,5,21.6,8.6z"
			/>
		<linearGradient id="SVGID_2_" gradientUnits="userSpaceOnUse" x1="20.0312" y1="20.2082" x2="8.3945" y2="8.5715">
			<stop  offset="0" style="stop-color:#8CC63F"/>
			<stop  offset="1" style="stop-color:#ACD36E"/>
		</linearGradient>
		<path class="st32" d="M20.9,8c3.6,3.6,3.6,9.5,0,13.2c-3.6,3.6-9.5,3.6-13.1,0c-3.6-3.6-3.6-9.5,0-13.2C11.4,4.3,17.3,4.3,20.9,8z
			"/>
	</g>
	<g>
		<path class="st21" d="M50,58H29V29h29V50C58,54,54.2,58,50,58z"/>
		<path class="st22" d="M49.5,36.6c3.6,3.6,3.6,9.5,0,13.2c-3.6,3.6-9.5,3.6-13.1,0c-3.6-3.6-3.6-9.5,0-13.2
			C40,33,45.9,33,49.5,36.6z"/>
		<g class="st10">
			<path class="st11" d="M55.6,44c3.2,3.2,3.2,8.4,0,11.6c-3.2,3.2-8.4,3.2-11.6,0c-3.2-3.2-3.2-8.4,0-11.6
				C47.2,40.8,52.4,40.8,55.6,44z"/>
			<path class="st23" d="M54.9,43.2c3.3,3.3,3.3,8.5,0,11.8c-3.3,3.3-8.5,3.3-11.8,0c-3.3-3.3-3.3-8.5,0-11.8
				C46.4,40,51.7,40,54.9,43.2z"/>
			<path class="st24" d="M54.3,42.4c3.3,3.3,3.3,8.7,0,12c-3.3,3.3-8.7,3.3-12,0c-3.3-3.3-3.3-8.7,0-12C45.6,39.1,51,39.1,54.3,42.4
				z"/>
			<path class="st25" d="M53.7,41.6c3.4,3.4,3.4,8.8,0,12.2c-3.4,3.4-8.8,3.4-12.2,0c-3.4-3.4-3.4-8.8,0-12.2
				C44.9,38.3,50.3,38.3,53.7,41.6z"/>
			<path class="st26" d="M53.1,40.8c3.4,3.4,3.4,9,0,12.4c-3.4,3.4-9,3.4-12.4,0c-3.4-3.4-3.4-9,0-12.4
				C44.1,37.4,49.7,37.4,53.1,40.8z"/>
			<path class="st27" d="M52.4,40c3.5,3.5,3.5,9.1,0,12.6c-3.5,3.5-9.1,3.5-12.6,0c-3.5-3.5-3.5-9.1,0-12.6
				C43.4,36.6,49,36.6,52.4,40z"/>
			<path class="st28" d="M51.8,39.2c3.5,3.5,3.5,9.2,0,12.8c-3.5,3.5-9.2,3.5-12.8,0c-3.5-3.5-3.5-9.2,0-12.8
				C42.6,35.7,48.3,35.7,51.8,39.2z"/>
			<path class="st29" d="M51.2,38.4c3.6,3.6,3.6,9.4,0,13c-3.6,3.6-9.4,3.6-12.9,0c-3.6-3.6-3.6-9.4,0-13
				C41.8,34.9,47.6,34.9,51.2,38.4z"/>
			<path class="st30" d="M50.6,37.6c3.6,3.6,3.6,9.5,0,13.2c-3.6,3.6-9.5,3.6-13.1,0c-3.6-3.6-3.6-9.5,0-13.2
				C41.1,34,46.9,34,50.6,37.6z"/>
		</g>
		<path class="st31" d="M50.6,37.6c3.6,3.6,3.6,9.5,0,13.2c-3.6,3.6-9.5,3.6-13.1,0c-3.6-3.6-3.6-9.5,0-13.2
			C41.1,34,46.9,34,50.6,37.6z"/>
		<linearGradient id="SVGID_3_" gradientUnits="userSpaceOnUse" x1="49.0124" y1="49.2371" x2="37.3757" y2="37.6004">
			<stop  offset="0" style="stop-color:#8CC63F"/>
			<stop  offset="1" style="stop-color:#ACD36E"/>
		</linearGradient>
		<path class="st33" d="M49.9,37c3.6,3.6,3.6,9.5,0,13.2c-3.6,3.6-9.5,3.6-13.1,0c-3.6-3.6-3.6-9.5,0-13.2
			C40.4,33.4,46.3,33.4,49.9,37z"/>
	</g>
	<g>
		<rect x="0" y="29" class="st34" width="29" height="29"/>
		<path class="st35" d="M20.5,36.6c3.6,3.6,3.6,9.5,0,13.2c-3.6,3.6-9.5,3.6-13.1,0c-3.6-3.6-3.6-9.5,0-13.2
			C11,33,16.9,33,20.5,36.6z"/>
		<g class="st10">
			<path class="st11" d="M26.6,44c3.2,3.2,3.2,8.4,0,11.6c-3.2,3.2-8.4,3.2-11.6,0c-3.2-3.2-3.2-8.4,0-11.6
				C18.2,40.8,23.4,40.8,26.6,44z"/>
			<path class="st36" d="M26,43.2c3.3,3.3,3.3,8.5,0,11.8c-3.3,3.3-8.5,3.3-11.8,0c-3.3-3.3-3.3-8.5,0-11.8C17.4,40,22.7,40,26,43.2
				z"/>
			<path class="st37" d="M25.3,42.4c3.3,3.3,3.3,8.7,0,12c-3.3,3.3-8.7,3.3-12,0c-3.3-3.3-3.3-8.7,0-12C16.7,39.1,22,39.1,25.3,42.4
				z"/>
			<path class="st38" d="M24.7,41.6c3.4,3.4,3.4,8.8,0,12.2c-3.4,3.4-8.8,3.4-12.2,0c-3.4-3.4-3.4-8.8,0-12.2
				C15.9,38.3,21.3,38.3,24.7,41.6z"/>
			<path class="st39" d="M24.1,40.8c3.4,3.4,3.4,9,0,12.4c-3.4,3.4-9,3.4-12.4,0c-3.4-3.4-3.4-9,0-12.4
				C15.1,37.4,20.7,37.4,24.1,40.8z"/>
			<path class="st40" d="M23.5,40c3.5,3.5,3.5,9.1,0,12.6c-3.5,3.5-9.1,3.5-12.6,0c-3.5-3.5-3.5-9.1,0-12.6
				C14.4,36.6,20,36.6,23.5,40z"/>
			<path class="st41" d="M22.8,39.2c3.5,3.5,3.5,9.2,0,12.8c-3.5,3.5-9.2,3.5-12.8,0c-3.5-3.5-3.5-9.2,0-12.8
				C13.6,35.7,19.3,35.7,22.8,39.2z"/>
			<path class="st42" d="M22.2,38.4c3.6,3.6,3.6,9.4,0,13c-3.6,3.6-9.4,3.6-12.9,0c-3.6-3.6-3.6-9.4,0-13
				C12.8,34.9,18.6,34.9,22.2,38.4z"/>
			<path class="st43" d="M21.6,37.6c3.6,3.6,3.6,9.5,0,13.2c-3.6,3.6-9.5,3.6-13.1,0c-3.6-3.6-3.6-9.5,0-13.2
				C12.1,34,18,34,21.6,37.6z"/>
		</g>
		<path class="st44" d="M21.6,37.6c3.6,3.6,3.6,9.5,0,13.2c-3.6,3.6-9.5,3.6-13.1,0c-3.6-3.6-3.6-9.5,0-13.2
			C12.1,34,18,34,21.6,37.6z"/>
		<linearGradient id="SVGID_4_" gradientUnits="userSpaceOnUse" x1="20.0302" y1="49.2247" x2="8.3939" y2="37.5883">
			<stop  offset="0" style="stop-color:#FBCC17"/>
			<stop  offset="1" style="stop-color:#FFD64D"/>
		</linearGradient>
		<path class="st45" d="M20.9,37c3.6,3.6,3.6,9.5,0,13.2c-3.6,3.6-9.5,3.6-13.1,0c-3.6-3.6-3.6-9.5,0-13.2
			C11.4,33.4,17.3,33.4,20.9,37z"/>
	</g>
</g>
</svg>
