<?xml version="1.0" encoding="utf-8"?>
<!-- Generator: Adobe Illustrator 19.1.0, SVG Export Plug-In . SVG Version: 6.00 Build 0)  -->
<svg version="1.1" id="Layer_1" xmlns="http://www.w3.org/2000/svg" xmlns:xlink="http://www.w3.org/1999/xlink" x="0px" y="0px"
	 viewBox="0 0 832 51.3" style="enable-background:new 0 0 832 51.3;" xml:space="preserve">
<style type="text/css">
	.st0{fill:#676767;}
	.st1{fill:#010101;}
</style>
<g id="Layer_5">
	<g>
		<g>
			<path class="st0" d="M287.7,37c-0.4,0.9-1.1,2.5-1.8,4.4c-0.6,1.7-0.4,2,1.7,2.3l-0.2,1.3h-7.2l0.2-1.3c1.7-0.2,2.2-0.5,3.8-3.7
				l9.5-19.8l1.8-0.5l0.7,6.1c0.5,4.8,1.1,9.7,1.6,14.3c0.4,3.2,0.8,3.5,2.5,3.7l-0.2,1.3h-8.4l0.2-1.3c1.8-0.2,2.1-0.5,2-2.2
				c-0.1-1.4-0.3-3.2-0.4-4.4h-5.8V37z M293.2,35.1l-0.8-8.6h-0.1c-1.4,2.9-2.6,5.5-3.8,8.6H293.2z"/>
			<path class="st0" d="M312.2,26.5c1.9,0,3.5,0.3,4.6,1.1s1.7,2.1,1.7,4c0,3.7-2.8,6.2-6.8,6.5c-0.3,0-0.7,0-1.2-0.1l-1.7-0.5
				l-0.6,3.6c-0.4,2.2-0.2,2.4,2.1,2.6l-0.2,1.3h-8.4l0.2-1.3c1.9-0.2,2.1-0.4,2.5-2.6l1.9-10.5c0.4-2.3,0.2-2.5-1.7-2.6l0.3-1.3
				h7.3V26.5z M309.2,35.9c0.4,0.2,1,0.4,1.5,0.4c2,0,3.7-2.1,3.7-4.9c0-2.4-1.2-3.4-2.8-3.4c-1,0-1.2,0.4-1.4,1.2L309.2,35.9z"/>
			<path class="st0" d="M328.9,26.5c1.9,0,3.5,0.3,4.6,1.1s1.7,2.1,1.7,4c0,3.7-2.8,6.2-6.8,6.5c-0.3,0-0.7,0-1.2-0.1l-1.7-0.5
				l-0.6,3.6c-0.4,2.2-0.2,2.4,2.1,2.6l-0.2,1.3h-8.4l0.2-1.3c1.9-0.2,2.1-0.4,2.5-2.6l1.9-10.5c0.4-2.3,0.2-2.5-1.7-2.6l0.3-1.3
				h7.3V26.5z M325.9,35.9c0.4,0.2,1,0.4,1.5,0.4c2,0,3.7-2.1,3.7-4.9c0-2.4-1.2-3.4-2.8-3.4c-1,0-1.2,0.4-1.4,1.2L325.9,35.9z"/>
			<path class="st0" d="M335.4,44.9l0.3-1.3c2-0.2,2.2-0.4,2.7-2.7l1.8-10.4c0.4-2.3,0.2-2.5-1.7-2.7l0.3-1.3h8.2l-0.3,1.3
				c-2,0.2-2.2,0.4-2.7,2.7l-1.8,10c-0.2,1.4-0.2,2.1,0.3,2.4c0.4,0.3,1.1,0.4,2,0.4c1,0,1.9-0.3,2.6-1c0.5-0.6,1.1-1.5,1.8-2.8
				l1.3,0.3c-0.4,1.1-1.4,4.2-1.8,5.1C348.4,44.9,335.4,44.9,335.4,44.9z"/>
			<path class="st0" d="M361.9,26.5l-0.3,1.3c-1.8,0.2-2,0.4-2.4,2.6l-1.8,10.5c-0.4,2.2-0.1,2.4,1.8,2.6l-0.2,1.3h-8.2l0.3-1.3
				c1.9-0.2,2.1-0.4,2.5-2.6l1.9-10.5c0.4-2.3,0.2-2.5-1.8-2.6l0.3-1.3H361.9z"/>
			<path class="st0" d="M376.3,32.1c-0.1-3.3-1.3-4.5-3.1-4.5c-3.4,0-6.1,4.6-6.1,10c0,3.7,1.2,6.1,3.5,6.1c1.9,0,3.6-1.8,5.2-4.5
				l1.2,0.5c-0.6,1.7-1.6,4-2.1,4.9c-0.8,0.2-2.9,0.8-4.8,0.8c-4.3,0-7.4-3-7.4-8c0-7.1,5.1-11.4,10.9-11.4c1.8,0,3.7,0.6,4.5,0.9
				c-0.2,1.6-0.3,3.1-0.5,5.1L376.3,32.1z"/>
			<path class="st0" d="M387.1,44.9l0.2-1.3l0.7-0.1c0.9-0.1,1.1-0.5,0.9-1.9l-0.3-1.9H383c-0.2,0.4-0.6,1.2-1,2.2
				c-0.5,1.1-0.3,1.6,0.6,1.7l0.8,0.1l-0.3,1.3H377l0.3-1.3c1.4-0.2,2-0.5,3.2-2.8l7.9-14.4l1.8-0.4l2.5,15.2c0.3,2,0.8,2.3,2.3,2.4
				l-0.3,1.3h-7.6V44.9z M383.9,37.9h4.5l-1-6.8h-0.1L383.9,37.9z"/>
			<path class="st0" d="M409.6,26.5c0.8,0,1-0.2,1.4-0.7h0.7c-0.3,1.4-0.6,4.3-0.8,5.9l-1.3,0.1c0-1.6-0.2-2.3-0.5-2.8
				s-1.1-0.8-2.1-0.8h-1l-2.3,12.7c-0.4,2.3-0.2,2.5,2.1,2.7l-0.3,1.3H397l0.2-1.3c2-0.2,2.3-0.4,2.7-2.7l2.3-12.7h-0.7
				c-1.5,0-2.2,0.4-2.7,0.9s-0.9,1.4-1.5,2.8H396c0.6-2.4,1.1-4.6,1.4-6h0.7c0.2,0.6,0.5,0.7,1.3,0.7h10.2V26.5z"/>
			<path class="st0" d="M421.9,26.5l-0.3,1.3c-1.8,0.2-2,0.4-2.4,2.6l-1.8,10.5c-0.4,2.2-0.1,2.4,1.8,2.6l-0.2,1.3h-8.2l0.2-1.3
				c1.9-0.2,2.1-0.4,2.5-2.6l1.9-10.5c0.4-2.3,0.2-2.5-1.8-2.6l0.3-1.3H421.9z"/>
			<path class="st0" d="M432.3,26c4.2,0,7,3.2,7,8c0,6.7-4.4,11.4-9.5,11.4c-4.4,0-7.1-3.2-7.1-7.9C422.6,31,427.1,26,432.3,26
				L432.3,26z M432.1,27.7c-2.9,0-5.1,5.5-5.1,11.1c0,2.5,0.7,4.9,2.9,4.9c3.4,0,5.1-6.4,5.1-11.1C435,30,434.3,27.7,432.1,27.7
				L432.1,27.7z"/>
			<path class="st0" d="M447.7,26.5l5.9,12.1h0.1l0.8-4.6c0.4-2.2,0.6-3.7,0.6-4.6c0-1.1-0.6-1.5-2.3-1.6l0.2-1.3h6.7l-0.3,1.3
				c-1.2,0.1-2,0.5-2.3,1.6c-0.3,0.9-0.6,2.4-1,4.6l-1.9,11h-1.8l-6.7-14.1l0,0l-1.1,6.4c-0.4,2.1-0.5,3.6-0.5,4.6
				c0,1.1,0.4,1.6,2.2,1.7l-0.2,1.3h-6.6l0.3-1.3c1.4-0.1,2-0.6,2.3-1.7c0.3-0.8,0.6-2.2,1-4.6l1-6c0.5-2.9,0.2-3.4-2-3.6l0.3-1.3
				L447.7,26.5L447.7,26.5z"/>
			<path class="st0" d="M489.9,20c-0.1,0.8-0.5,3.7-0.7,5.9l-1.3,0.1c-0.1-1.6-0.3-2.7-0.7-3.3c-0.4-0.6-1.3-1-3.1-1h-1.6
				c-1.1,0-1.1,0.1-1.4,1.3l-1.5,8.3h2.8c2.5,0,2.9-0.3,3.8-2.8h1.3l-1.4,7.9h-1.3c0.2-2.9-0.1-3.2-2.7-3.2h-2.8l-1.1,6.7
				c-0.5,3.1-0.4,3.4,2.4,3.7l-0.2,1.3h-9.5l0.2-1.3c2.2-0.2,2.5-0.6,3-3.7l2.7-14.9c0.5-3.1,0.3-3.4-2-3.6l0.3-1.3h14.8V20z"/>
			<path class="st0" d="M498.7,26c4.2,0,7,3.2,7,8c0,6.7-4.4,11.4-9.5,11.4c-4.4,0-7.1-3.2-7.1-7.9C489,31,493.5,26,498.7,26
				L498.7,26z M498.5,27.7c-2.9,0-5.1,5.5-5.1,11.1c0,2.5,0.7,4.9,2.9,4.9c3.4,0,5.1-6.4,5.1-11.1C501.4,30,500.7,27.7,498.5,27.7
				L498.5,27.7z"/>
			<path class="st0" d="M517.1,26.5l-0.3,1.3c-1.8,0.2-2,0.4-2.5,3l-1,6c-0.8,4.4,0.4,6.3,2.7,6.3c2.5,0,4.1-2.8,4.9-7.2l0.3-1.7
				c0.5-2.8,0.6-3.9,0.6-4.8c0-1.1-0.5-1.5-2.1-1.6l0.2-1.3h6.5l-0.2,1.3c-1.3,0.1-1.9,0.5-2.3,1.7c-0.3,0.9-0.6,2.1-1.1,4.8
				l-0.4,2.4c-0.4,2.4-1.3,5.1-2.9,6.7c-1.2,1.3-3,1.9-4.7,1.9s-3.4-0.4-4.3-1.5c-1.1-1.2-1.8-3.2-1.2-6.6l1.2-6.4
				c0.5-2.6,0.3-2.8-1.8-3l0.3-1.3C509,26.5,517.1,26.5,517.1,26.5z"/>
			<path class="st0" d="M532.7,26.5l5.9,12.1h0.1l0.8-4.6c0.4-2.2,0.6-3.7,0.6-4.6c0-1.1-0.6-1.5-2.3-1.6l0.2-1.3h6.7l-0.3,1.3
				c-1.2,0.1-2,0.5-2.3,1.6c-0.3,0.9-0.6,2.4-1,4.6l-1.9,11h-1.8l-6.7-14.1l0,0l-1.1,6.4c-0.4,2.1-0.5,3.6-0.5,4.6
				c0,1.1,0.4,1.6,2.2,1.7l-0.2,1.3h-6.6l0.3-1.3c1.4-0.1,2-0.6,2.3-1.7c0.3-0.8,0.6-2.2,1-4.6l1-6c0.5-2.9,0.2-3.4-2-3.6l0.3-1.3
				L532.7,26.5L532.7,26.5z"/>
			<path class="st0" d="M553.6,26.5c2.3,0,4.6,0.5,6,1.6c1.6,1.2,2.6,3.2,2.6,6.1c0,3.8-1.7,7-4.5,8.9c-2.1,1.4-4.8,1.9-7.6,1.9
				h-6.6l0.2-1.3c1.9-0.2,2.1-0.4,2.5-2.7l1.8-10.2c0.4-2.4,0.2-2.6-1.7-2.8l0.3-1.3h7V26.5z M550.2,40.5c-0.3,2-0.2,2.8,1.2,2.8
				c3.6,0,6.5-4.1,6.5-9.5c0-3.9-1.5-5.7-4.2-5.7c-0.6,0-1,0.2-1.2,0.4s-0.3,0.6-0.5,1.3L550.2,40.5z"/>
			<path class="st0" d="M571,44.9l0.2-1.3l0.7-0.1c0.9-0.1,1.1-0.5,0.9-1.9l-0.3-1.9H567c-0.2,0.4-0.6,1.2-1,2.2
				c-0.5,1.1-0.3,1.6,0.6,1.7l0.8,0.1l-0.3,1.3h-6.2l0.3-1.3c1.4-0.2,2-0.5,3.2-2.8l7.9-14.4l1.8-0.4l2.5,15.2
				c0.3,2,0.8,2.3,2.3,2.4l-0.3,1.3H571V44.9z M567.8,37.9h4.5l-1-6.8h-0.1L567.8,37.9z"/>
			<path class="st0" d="M593.5,26.5c0.8,0,1-0.2,1.4-0.7h0.7c-0.3,1.4-0.6,4.3-0.8,5.9l-1.3,0.1c0-1.6-0.2-2.3-0.5-2.8
				s-1.1-0.8-2.1-0.8h-1l-2.3,12.7c-0.4,2.3-0.2,2.5,2.1,2.7l-0.3,1.3h-8.7l0.2-1.3c2-0.2,2.3-0.4,2.7-2.7l2.3-12.7h-0.7
				c-1.5,0-2.2,0.4-2.7,0.9s-0.9,1.4-1.5,2.8h-1c0.6-2.4,1.1-4.6,1.4-6h0.7c0.2,0.6,0.5,0.7,1.3,0.7h10.1V26.5z"/>
			<path class="st0" d="M605.8,26.5l-0.3,1.3c-1.8,0.2-2,0.4-2.4,2.6l-1.8,10.5c-0.4,2.2-0.1,2.4,1.8,2.6l-0.2,1.3h-8.2l0.3-1.3
				c1.9-0.2,2.1-0.4,2.5-2.6l1.9-10.5c0.4-2.3,0.2-2.5-1.8-2.6l0.3-1.3H605.8z"/>
			<path class="st0" d="M616.1,26c4.2,0,7,3.2,7,8c0,6.7-4.4,11.4-9.5,11.4c-4.4,0-7.1-3.2-7.1-7.9C606.5,31,611,26,616.1,26
				L616.1,26z M616,27.7c-2.9,0-5.1,5.5-5.1,11.1c0,2.5,0.7,4.9,2.9,4.9c3.4,0,5.1-6.4,5.1-11.1C618.9,30,618.1,27.7,616,27.7
				L616,27.7z"/>
			<path class="st0" d="M631.6,26.5l5.9,12.1h0.1l0.8-4.6c0.4-2.2,0.6-3.7,0.6-4.6c0-1.1-0.6-1.5-2.3-1.6l0.2-1.3h6.7l-0.3,1.3
				c-1.2,0.1-2,0.5-2.3,1.6c-0.3,0.9-0.6,2.4-1,4.6l-1.9,11h-1.8l-6.7-14.1l0,0l-1.1,6.4c-0.4,2.1-0.5,3.6-0.5,4.6
				c0,1.1,0.4,1.6,2.2,1.7l-0.2,1.3h-6.6l0.2-1.3c1.4-0.1,2-0.6,2.3-1.7c0.3-0.8,0.6-2.2,1-4.6l1-6c0.5-2.9,0.2-3.4-2-3.6l0.3-1.3
				L631.6,26.5L631.6,26.5z"/>
			<path class="st0" d="M673.8,20c-0.1,0.8-0.5,3.7-0.7,5.9l-1.3,0.1c-0.1-1.6-0.3-2.7-0.7-3.3c-0.4-0.6-1.3-1-3.1-1h-1.6
				c-1.1,0-1.1,0.1-1.4,1.3l-1.5,8.3h2.8c2.5,0,2.9-0.3,3.8-2.8h1.3l-1.4,7.9h-1.3c0.2-2.9-0.1-3.2-2.7-3.2h-2.8l-1.1,6.7
				c-0.5,3.1-0.4,3.4,2.4,3.7l-0.2,1.3h-9.5l0.2-1.3c2.2-0.2,2.5-0.6,3-3.7l2.7-14.9c0.5-3.1,0.3-3.4-2-3.6l0.3-1.3h14.8V20z"/>
			<path class="st0" d="M678.2,37.1l-0.7,3.9c-0.4,2.3-0.1,2.4,1.8,2.6l-0.2,1.3h-8l0.2-1.3c1.9-0.2,2.1-0.4,2.5-2.6l1.8-10.5
				c0.4-2.3,0.2-2.5-1.7-2.6l0.2-1.3h7.5c1.6,0,3.1,0.2,4.2,0.9c1,0.7,1.7,1.8,1.7,3.6c0,2.7-1.8,4.4-4,5.2c0.3,0.9,1,2.7,1.5,3.9
				c0.6,1.3,1,2.1,1.4,2.7c0.4,0.6,0.9,1,1.3,1.2l-0.3,1.1h-0.7c-3.4,0-4.4-1.1-5.1-2.6c-0.5-1.2-1-2.8-1.5-4.2
				c-0.3-1-0.7-1.2-1.6-1.2h-0.3V37.1z M678.5,35.6h0.9c0.8,0,1.7-0.1,2.5-0.6c1-0.7,1.7-2.1,1.7-3.9c0-2.1-1.1-3-2.5-3
				c-1,0-1.3,0.3-1.5,1.3L678.5,35.6z"/>
			<path class="st0" d="M699.2,44.9l0.2-1.3l0.7-0.1c0.9-0.1,1.1-0.5,0.9-1.9l-0.3-1.9h-5.6c-0.2,0.4-0.6,1.2-1,2.2
				c-0.5,1.1-0.3,1.6,0.6,1.7l0.8,0.1l-0.3,1.3H689l0.3-1.3c1.4-0.2,2-0.5,3.2-2.8l7.9-14.4l1.8-0.4l2.5,15.2c0.3,2,0.8,2.3,2.3,2.4
				l-0.3,1.3h-7.5V44.9z M696,37.9h4.5l-1-6.8h-0.1L696,37.9z"/>
			<path class="st0" d="M732.1,26.5l-0.3,1.3c-2,0.2-2.1,0.4-2.5,3.1l-1.3,9.8c-0.4,2.6-0.1,2.7,1.9,2.9l-0.3,1.3h-8.5l0.3-1.3
				c2-0.2,2.2-0.3,2.7-2.9l1.9-11.3h-0.1l-7.7,15.2h-1.1l-1.8-15.1h-0.1l-1.8,7.8c-0.7,2.8-0.8,3.8-0.9,4.6c-0.1,1.1,0.3,1.5,2,1.7
				l-0.3,1.3h-6.4l0.3-1.3c1.3-0.2,1.9-0.5,2.3-1.6c0.3-0.8,0.7-2.1,1.4-4.7l1.5-6c0.8-3.1,0.7-3.2-1.5-3.5l0.3-1.3h6l1.9,11.2
				l6-11.2H732.1z"/>
			<path class="st0" d="M748.1,26.5c-0.1,0.8-0.4,2.7-0.6,4.7l-1.3,0.1c-0.1-1.1-0.2-1.8-0.5-2.3s-0.9-0.9-2.5-0.9h-1.3
				c-1,0-1,0-1.2,1.1l-0.9,5.2h2.2c1.8,0,1.9-0.2,2.5-2.1h1.3l-1.1,6h-1.3c0.1-2,0-2.1-1.8-2.1h-2.2l-0.7,4
				c-0.3,1.6-0.2,2.4,0.2,2.7s1.1,0.4,2.2,0.4c1.3,0,2.4-0.2,3.1-0.9c0.6-0.6,1.2-1.5,1.8-2.6l1.3,0.3c-0.4,1.1-1.5,4.1-1.8,4.9
				h-13.7l0.2-1.3c2.1-0.2,2.3-0.4,2.7-2.8l1.8-10.1c0.4-2.5,0.3-2.7-1.7-2.9l0.2-1.3h13.1V26.5z"/>
			<path class="st0" d="M757.8,26.5l-0.3,1.4l-0.8,0.1c-1,0.2-1.2,0.3-1.1,1.8l0.6,9.3h0.1l5.8-12.1h1.4l1.7,12.1h0.1
				c1.5-3.3,3-6.6,4-9.2c0.5-1.4,0.4-1.7-0.5-1.9l-0.9-0.1l0.3-1.4h6.1l-0.3,1.4c-1.6,0.3-1.9,0.5-2.9,2.4
				c-2.3,4.4-4.6,9.5-7.2,14.9h-1.4l-1.8-11.6h-0.1l-5.9,11.6h-1.3L752,30.3c-0.2-2.1-0.5-2.3-2-2.5l0.3-1.3H757.8z"/>
			<path class="st0" d="M782.6,26c4.2,0,7,3.2,7,8c0,6.7-4.4,11.4-9.5,11.4c-4.4,0-7.1-3.2-7.1-7.9C773,31,777.4,26,782.6,26
				L782.6,26z M782.4,27.7c-2.9,0-5.1,5.5-5.1,11.1c0,2.5,0.7,4.9,2.9,4.9c3.4,0,5.1-6.4,5.1-11.1C785.3,30,784.6,27.7,782.4,27.7
				L782.4,27.7z"/>
			<path class="st0" d="M797.4,37.1l-0.7,3.9c-0.4,2.3-0.1,2.4,1.8,2.6l-0.2,1.3h-8l0.2-1.3c1.9-0.2,2.1-0.4,2.5-2.6l1.8-10.5
				c0.4-2.3,0.2-2.5-1.7-2.6l0.2-1.3h7.5c1.6,0,3.1,0.2,4.2,0.9c1,0.7,1.7,1.8,1.7,3.6c0,2.7-1.8,4.4-4,5.2c0.3,0.9,1,2.7,1.5,3.9
				c0.6,1.3,1,2.1,1.4,2.7c0.4,0.6,0.9,1,1.3,1.2l-0.3,1.1h-0.7c-3.4,0-4.4-1.1-5.1-2.6c-0.5-1.2-1-2.8-1.5-4.2
				c-0.3-1-0.7-1.2-1.6-1.2h-0.3V37.1z M797.7,35.6h0.9c0.8,0,1.7-0.1,2.5-0.6c1-0.7,1.7-2.1,1.7-3.9c0-2.1-1.1-3-2.5-3
				c-1,0-1.3,0.3-1.5,1.3L797.7,35.6z"/>
			<path class="st0" d="M819.3,26.5l-0.2,1.3c-1.7,0.2-1.9,0.4-2.3,2.6l-0.8,4.4c0.4-0.1,0.8-0.3,1.5-0.9c1.6-1.4,3.3-3.6,4.2-4.7
				c0.6-0.7,0.8-1.2,0-1.3l-0.6-0.1l0.2-1.3h6.7l-0.3,1.3c-1.6,0.2-2.5,0.7-3.7,1.7c-1.1,1-3,2.8-4.3,4.3c1.2,3.1,2.7,6.3,3.5,8
				c0.7,1.3,1.2,1.7,2.3,1.8l-0.3,1.3h-5.1c-0.5-1.3-2.3-5.9-3.1-7.8c-0.4-1-0.8-1.1-1.4-1.1l-0.8,4.9c-0.4,2.3-0.2,2.4,1.8,2.6
				l-0.3,1.3h-8l0.3-1.3c1.9-0.1,2.1-0.4,2.5-2.6l1.8-10.5c0.4-2.3,0.2-2.5-1.8-2.6l0.2-1.3C811.3,26.5,819.3,26.5,819.3,26.5z"/>
		</g>
	</g>
	<g>
		<g>
			<path class="st1" d="M8.2,32.9c0.6,3.4,3.2,10,8.9,10c4.2,0,6.4-3.2,6.4-6.2s-1.4-5.4-4.9-8.1l-1.4-1.1c-3.1-2.3-6.6-5.4-6.6-10
				c0-6.5,5.5-11,12.9-11c2.2,0,4.5,0.3,6.2,0.9c1.1,0.4,1.9,0.7,2.6,0.9c-0.2,2.5-0.4,4.9-0.5,8.5L29.5,17
				c-0.5-3.5-1.7-8.1-6.8-8.1c-3.8,0-5.7,3.1-5.7,5.7c0,2.5,1.5,4.7,4.6,6.9l1.9,1.4c3.9,3,6.8,6.1,6.8,10.8
				c0,7.5-6.6,11.7-14.1,11.7c-4.9,0-9.3-2-10.2-3.4c-0.1-1.5,0-4.7,0-8.9L8.2,32.9z"/>
			<path class="st1" d="M60.7,16.9c-0.2,1.2-0.6,4.1-1,7.1l-2.3,0.1c-0.2-1.6-0.4-2.7-0.8-3.4c-0.5-0.8-1.6-1.3-4.4-1.3h-2.3
				c-1.8,0-1.9,0-2.2,1.6l-1.6,7.9H50c3.2,0,3.4-0.3,4.5-3.2h2.3l-1.9,9h-2.3c0.1-3,0-3.2-3.2-3.2h-3.9l-1.2,6
				c-0.5,2.4-0.4,3.6,0.3,4c0.8,0.5,1.9,0.6,3.8,0.6c2.4,0,4.3-0.4,5.5-1.4c1-0.9,2.2-2.3,3.2-3.9l2.3,0.4c-0.7,1.7-2.6,6.2-3.2,7.4
				H32l0.4-2c3.7-0.3,4.1-0.6,4.8-4.2l3.2-15.3c0.8-3.8,0.5-4.1-3-4.3l0.4-2L60.7,16.9L60.7,16.9z"/>
			<path class="st1" d="M104.7,16.9l-0.5,2c-3.6,0.4-3.8,0.6-4.4,4.6l-2.3,14.8c-0.6,3.9-0.3,4,3.4,4.4l-0.4,2h-15l0.5-2
				c3.6-0.4,3.9-0.5,4.7-4.4l3.3-17h-0.2L80.2,44.2h-1.9L75,21.5h-0.1l-3.2,11.7c-1.2,4.2-1.5,5.7-1.6,6.9c-0.2,1.7,0.5,2.3,3.5,2.6
				l-0.5,2H61.8l0.5-2c2.3-0.2,3.3-0.8,4.1-2.4c0.6-1.3,1.3-3.2,2.5-7.1l2.7-9c1.4-4.7,1.2-4.9-2.6-5.2l0.6-2h10.6l3.1,16.8L94,17
				L104.7,16.9L104.7,16.9z"/>
			<path class="st1" d="M122.1,44.7l0.4-2l1.2-0.1c1.7-0.2,2-0.8,1.6-2.9l-0.5-2.9H115c-0.4,0.7-1,1.8-1.8,3.2
				c-0.9,1.7-0.6,2.4,1,2.6l1.4,0.1l-0.5,2h-10.9l0.5-2c2.4-0.3,3.5-0.8,5.7-4.2l14.1-21.7l3.2-0.6l4.5,22.8c0.6,3,1.4,3.4,4.2,3.7
				l-0.5,2C135.9,44.7,122.1,44.7,122.1,44.7z M116.4,34.1h8l-1.7-10.2h-0.1L116.4,34.1z"/>
			<path class="st1" d="M167.4,7.2c1.4,0,1.9-0.4,2.9-1.5h1.5c-0.5,2.4-1.2,7-1.7,10.7l-2.3,0.1c-0.1-2.8-0.4-4.4-1.1-5.3
				c-0.7-1-2.1-1.5-4.4-1.5H160l-5.8,27.6c-0.9,4.5-0.6,5,4.4,5.4l-0.4,2h-17.6l0.4-2c4.5-0.4,5.1-0.9,6.1-5.4l5.7-27.6h-1.7
				c-3.1,0-4.6,0.8-5.7,1.8c-0.9,0.9-1.9,2.5-3.2,5.1h-2.3c1.2-4,2.3-7.9,2.9-10.9h1.5c0.6,1.3,1.1,1.5,2.5,1.5
				C146.8,7.2,167.4,7.2,167.4,7.2z"/>
			<path class="st1" d="M180.2,32.9l-1.2,5.9c-0.7,3.4-0.2,3.7,3.1,3.9l-0.4,2h-14.2l0.4-2c3.4-0.3,3.7-0.6,4.4-3.9l3.2-15.9
				c0.7-3.5,0.3-3.7-3-4l0.4-2h13.2c2.9,0,5.6,0.3,7.5,1.4c1.7,1,3,2.7,3,5.4c0,4.1-3.3,6.6-7.1,7.8c0.5,1.3,1.8,4.1,2.7,5.9
				c1,1.9,1.8,3.1,2.5,4c0.8,0.9,1.6,1.5,2.3,1.8l-0.5,1.7h-1.2c-6.1,0-7.7-1.6-9-3.9c-0.9-1.8-1.8-4.2-2.6-6.4
				c-0.5-1.4-1.3-1.8-2.8-1.8L180.2,32.9L180.2,32.9z M180.7,30.6h1.6c1.5,0,3-0.2,4.4-1c1.8-1,3-3.2,3-5.9c0-3.1-1.9-4.5-4.4-4.5
				c-1.8,0-2.2,0.4-2.6,1.9L180.7,30.6z"/>
			<path class="st1" d="M228,16.9c-0.2,1.2-0.6,4.1-1,7.1l-2.3,0.1c-0.2-1.6-0.4-2.7-0.8-3.4c-0.5-0.8-1.6-1.3-4.4-1.3h-2.3
				c-1.8,0-1.9,0-2.2,1.6l-1.6,7.9h3.9c3.2,0,3.4-0.3,4.5-3.2h2.3l-1.9,9h-2.3c0.1-3,0-3.2-3.2-3.2h-3.9l-1.2,6
				c-0.5,2.4-0.4,3.6,0.3,4c0.8,0.5,1.9,0.6,3.8,0.6c2.4,0,4.3-0.4,5.5-1.4c1-0.9,2.2-2.3,3.2-3.9l2.3,0.4c-0.7,1.7-2.6,6.2-3.2,7.4
				h-24.2l0.4-2c3.7-0.3,4.1-0.6,4.8-4.2l3.2-15.3c0.8-3.8,0.5-4.1-3-4.3l0.4-2L228,16.9L228,16.9z"/>
			<path class="st1" d="M257.9,16.9c-0.2,1.2-0.6,4.1-1,7.1l-2.3,0.1c-0.2-1.6-0.4-2.7-0.8-3.4c-0.5-0.8-1.6-1.3-4.4-1.3H247
				c-1.8,0-1.9,0-2.2,1.6l-1.6,7.9h3.9c3.2,0,3.4-0.3,4.5-3.2h2.3l-1.9,9h-2.3c0.1-3,0-3.2-3.2-3.2h-3.9l-1.2,6
				c-0.5,2.4-0.4,3.6,0.3,4c0.8,0.5,1.9,0.6,3.8,0.6c2.4,0,4.3-0.4,5.5-1.4c1-0.9,2.2-2.3,3.2-3.9l2.3,0.4c-0.7,1.7-2.6,6.2-3.2,7.4
				H229l0.4-2c3.7-0.3,4.1-0.6,4.8-4.2l3.2-15.3c0.8-3.8,0.5-4.1-3-4.3l0.4-2L257.9,16.9L257.9,16.9z"/>
		</g>
	</g>
</g>
</svg>
