<?xml version="1.0" encoding="utf-8"?>
<!-- Generator: Adobe Illustrator 19.1.0, SVG Export Plug-In . SVG Version: 6.00 Build 0)  -->
<svg version="1.1" id="Layer_1" xmlns="http://www.w3.org/2000/svg" xmlns:xlink="http://www.w3.org/1999/xlink" x="0px" y="0px"
	 viewBox="277 367 58 58" style="enable-background:new 277 367 58 58;" xml:space="preserve">
<style type="text/css">
	.st0{fill:#EF6E22;}
	.st1{fill:#FED19F;}
	.st2{opacity:0.7;}
	.st3{fill:#FFFFFF;fill-opacity:0;}
	.st4{opacity:0.125;fill:#E9D9CF;enable-background:new    ;}
	.st5{opacity:0.25;fill:#DABCAC;enable-background:new    ;}
	.st6{opacity:0.375;fill:#CCA28C;enable-background:new    ;}
	.st7{opacity:0.5;fill:#BE8A70;enable-background:new    ;}
	.st8{opacity:0.625;fill:#B27458;enable-background:new    ;}
	.st9{opacity:0.75;fill:#A66042;enable-background:new    ;}
	.st10{opacity:0.875;fill:#9B4D2D;enable-background:new    ;}
	.st11{fill:#90391E;}
	.st12{fill:url(#SVGID_1_);}
	.st13{fill:#8DC641;}
	.st14{fill:#C9E093;}
	.st15{opacity:0.125;fill:#E1E4D8;enable-background:new    ;}
	.st16{opacity:0.25;fill:#CAD1BB;enable-background:new    ;}
	.st17{opacity:0.375;fill:#B5C0A1;enable-background:new    ;}
	.st18{opacity:0.5;fill:#A0B188;enable-background:new    ;}
	.st19{opacity:0.625;fill:#8DA373;enable-background:new    ;}
	.st20{opacity:0.75;fill:#7B965D;enable-background:new    ;}
	.st21{opacity:0.875;fill:#698B48;enable-background:new    ;}
	.st22{fill:#56803A;}
	.st23{fill:#547B38;}
	.st24{fill:url(#SVGID_2_);}
	.st25{fill:url(#SVGID_3_);}
	.st26{fill:#F2C118;}
	.st27{fill:#FEE983;}
	.st28{opacity:0.125;fill:#E4DED3;enable-background:new    ;}
	.st29{opacity:0.25;fill:#D1C7B2;enable-background:new    ;}
	.st30{opacity:0.375;fill:#BFB295;enable-background:new    ;}
	.st31{opacity:0.5;fill:#AE9F7A;enable-background:new    ;}
	.st32{opacity:0.625;fill:#9E8D63;enable-background:new    ;}
	.st33{opacity:0.75;fill:#8F7D4C;enable-background:new    ;}
	.st34{opacity:0.875;fill:#816E37;enable-background:new    ;}
	.st35{fill:#746127;}
	.st36{fill:#775120;}
	.st37{fill:url(#SVGID_4_);}
</style>
<g>
	<rect x="306" y="367" class="st0" width="29" height="29"/>
	<path class="st1" d="M326.6,374.6c3.6,3.6,3.6,9.5,0,13.2c-3.6,3.6-9.5,3.6-13.1,0s-3.6-9.5,0-13.2
		C317,370.9,322.9,370.9,326.6,374.6z"/>
	<g class="st2">
		<path class="st3" d="M332.6,382c3.2,3.2,3.2,8.4,0,11.6s-8.4,3.2-11.6,0s-3.2-8.4,0-11.6S329.4,378.8,332.6,382z"/>
		<path class="st4" d="M332,381.2c3.3,3.3,3.3,8.5,0,11.8s-8.5,3.3-11.8,0s-3.3-8.5,0-11.8C323.4,377.9,328.7,377.9,332,381.2z"/>
		<path class="st5" d="M331.4,380.4c3.3,3.3,3.3,8.7,0,12s-8.7,3.3-12,0s-3.3-8.7,0-12C322.7,377.1,328,377.1,331.4,380.4z"/>
		<path class="st6" d="M330.7,379.6c3.4,3.4,3.4,8.8,0,12.2c-3.4,3.4-8.8,3.4-12.2,0c-3.4-3.4-3.4-8.8,0-12.2
			C321.9,376.2,327.4,376.2,330.7,379.6z"/>
		<path class="st7" d="M330.1,378.8c3.4,3.4,3.4,9,0,12.4s-9,3.4-12.4,0s-3.4-9,0-12.4C321.2,375.4,326.7,375.4,330.1,378.8z"/>
		<path class="st8" d="M329.5,378c3.5,3.5,3.5,9.1,0,12.6s-9.1,3.5-12.6,0s-3.5-9.1,0-12.6S326,374.5,329.5,378z"/>
		<path class="st9" d="M328.9,377.2c3.5,3.5,3.5,9.2,0,12.8c-3.5,3.5-9.2,3.5-12.8,0c-3.5-3.5-3.5-9.2,0-12.8
			C319.6,373.7,325.3,373.7,328.9,377.2z"/>
		<path class="st10" d="M328.2,376.4c3.6,3.6,3.6,9.4,0,13s-9.4,3.6-12.9,0c-3.6-3.6-3.6-9.4,0-13
			C318.9,372.8,324.7,372.8,328.2,376.4z"/>
		<path class="st11" d="M327.6,375.6c3.6,3.6,3.6,9.5,0,13.2c-3.6,3.6-9.5,3.6-13.1,0s-3.6-9.5,0-13.2
			C318.1,372,324,372,327.6,375.6z"/>
	</g>
	<path class="st11" d="M327.6,375.6c3.6,3.6,3.6,9.5,0,13.2c-3.6,3.6-9.5,3.6-13.1,0s-3.6-9.5,0-13.2C318.1,372,324,372,327.6,375.6
		z"/>
	
		<linearGradient id="SVGID_1_" gradientUnits="userSpaceOnUse" x1="326.0554" y1="404.7947" x2="314.4182" y2="416.4318" gradientTransform="matrix(1 0 0 -1 0 792)">
		<stop  offset="0" style="stop-color:#F47522"/>
		<stop  offset="1" style="stop-color:#F38820"/>
	</linearGradient>
	<path class="st12" d="M327,375c3.6,3.6,3.6,9.5,0,13.2c-3.6,3.6-9.5,3.6-13.1,0s-3.6-9.5,0-13.2S323.3,371.3,327,375z"/>
</g>
<g>
	<path class="st13" d="M306,396h-19.8H277v-9.6c0,0,0-8.9,0-11.4c0-3.6,3.1-8,8-8c5,0,21,0,21,0V396z"/>
	<path class="st14" d="M297.6,374.6c3.6,3.6,3.6,9.5,0,13.2c-3.6,3.6-9.5,3.6-13.1,0s-3.6-9.5,0-13.2S294,370.9,297.6,374.6z"/>
	<g class="st2">
		<path class="st3" d="M302.2,380.8c5.5,3.5,5.1,11.7-1.2,14.6c-2,0.9-4.4,0.9-6.4,0c-6.3-2.9-6.7-11-1.2-14.6
			C296.1,379.1,299.5,379.1,302.2,380.8z"/>
		<path class="st15" d="M301.7,380.2c5.2,3.6,4.8,11.3-1,14.4c-2.2,1.2-5,1.2-7.2,0c-5.8-3.1-6.2-10.8-1-14.4
			C295.2,378.3,299,378.3,301.7,380.2z"/>
		<path class="st16" d="M301.3,379.5c5,3.6,4.6,10.9-0.9,14.2c-2.5,1.5-5.6,1.5-8.1,0c-5.5-3.3-5.8-10.6-0.9-14.2
			C294.4,377.4,298.4,377.4,301.3,379.5z"/>
		<path class="st17" d="M300.9,378.9c4.7,3.7,4.4,10.6-0.7,14c-2.7,1.8-6.2,1.8-8.9,0c-5.1-3.4-5.5-10.4-0.7-14
			C293.5,376.5,297.8,376.5,300.9,378.9z"/>
		<path class="st18" d="M300.4,378.2c4.5,3.7,4.2,10.4-0.6,13.9c-2.9,2.1-6.8,2.1-9.8,0c-4.8-3.5-5.1-10.2-0.6-13.9
			C292.7,375.6,297.2,375.6,300.4,378.2z"/>
		<path class="st19" d="M300,377.6c4.3,3.7,4,10.1-0.4,13.7c-3.1,2.5-7.5,2.5-10.6,0c-4.5-3.5-4.7-10-0.4-13.7
			C291.8,374.7,296.7,374.7,300,377.6z"/>
		<path class="st20" d="M299.5,376.9c4,3.7,3.9,9.9-0.3,13.5c-3.3,2.8-8.1,2.8-11.4,0c-4.2-3.6-4.3-9.8-0.3-13.5
			C290.9,373.8,296.1,373.8,299.5,376.9z"/>
		<path class="st21" d="M299.1,376.3c3.8,3.7,3.7,9.7-0.1,13.3c-3.5,3.2-8.8,3.2-12.3,0c-3.9-3.6-4-9.7-0.1-13.3
			C290,372.9,295.5,372.9,299.1,376.3z"/>
		<path class="st22" d="M298.6,375.6c3.6,3.6,3.6,9.5,0,13.2c-3.6,3.6-9.5,3.6-13.1,0s-3.6-9.5,0-13.2
			C289.1,372,295,372,298.6,375.6z"/>
	</g>
	<path class="st23" d="M298.6,375.6c3.6,3.6,3.6,9.5,0,13.2c-3.6,3.6-9.5,3.6-13.1,0s-3.6-9.5,0-13.2C289.1,372,295,372,298.6,375.6
		z"/>
	
		<linearGradient id="SVGID_2_" gradientUnits="userSpaceOnUse" x1="297.0662" y1="404.7844" x2="285.4295" y2="416.4211" gradientTransform="matrix(1 0 0 -1 0 792)">
		<stop  offset="0" style="stop-color:#8DC641"/>
		<stop  offset="1" style="stop-color:#ACD36F"/>
	</linearGradient>
	<path class="st24" d="M298,375c3.6,3.6,3.6,9.5,0,13.2c-3.6,3.6-9.5,3.6-13.1,0s-3.6-9.5,0-13.2S294.4,371.3,298,375z"/>
</g>
<g>
	<path class="st13" d="M327,425h-21v-29h29v21C335,421,331.3,425,327,425z"/>
	<path class="st14" d="M326.6,403.6c3.6,3.6,3.6,9.5,0,13.2c-3.6,3.6-9.5,3.6-13.1,0s-3.6-9.5,0-13.2
		C317.1,400,322.9,400,326.6,403.6z"/>
	<g class="st2">
		<path class="st3" d="M332.6,411c3.2,3.2,3.2,8.4,0,11.6s-8.4,3.2-11.6,0s-3.2-8.4,0-11.6S329.4,407.8,332.6,411z"/>
		<path class="st15" d="M332,410.2c3.3,3.3,3.3,8.5,0,11.8s-8.5,3.3-11.8,0s-3.3-8.5,0-11.8C323.4,407,328.7,407,332,410.2z"/>
		<path class="st16" d="M331.4,409.4c3.3,3.3,3.3,8.7,0,12s-8.7,3.3-12,0s-3.3-8.7,0-12C322.7,406.1,328.1,406.1,331.4,409.4z"/>
		<path class="st17" d="M330.7,408.6c3.4,3.4,3.4,8.8,0,12.2c-3.4,3.4-8.8,3.4-12.2,0c-3.4-3.4-3.4-8.8,0-12.2
			C321.9,405.3,327.4,405.3,330.7,408.6z"/>
		<path class="st18" d="M330.1,407.8c3.4,3.4,3.4,9,0,12.4s-9,3.4-12.4,0s-3.4-9,0-12.4C321.2,404.4,326.7,404.4,330.1,407.8z"/>
		<path class="st19" d="M329.5,407c3.5,3.5,3.5,9.1,0,12.6s-9.1,3.5-12.6,0s-3.5-9.1,0-12.6C320.4,403.6,326,403.6,329.5,407z"/>
		<path class="st20" d="M328.9,406.2c3.5,3.5,3.5,9.2,0,12.8c-3.5,3.5-9.2,3.5-12.8,0c-3.5-3.5-3.5-9.2,0-12.8
			C319.6,402.7,325.3,402.7,328.9,406.2z"/>
		<path class="st21" d="M328.2,405.4c3.6,3.6,3.6,9.4,0,13s-9.4,3.6-12.9,0c-3.6-3.6-3.6-9.4,0-13
			C318.9,401.9,324.7,401.9,328.2,405.4z"/>
		<path class="st22" d="M327.6,404.6c3.6,3.6,3.6,9.5,0,13.2c-3.6,3.6-9.5,3.6-13.1,0s-3.6-9.5,0-13.2
			C318.1,401,324,401,327.6,404.6z"/>
	</g>
	<path class="st23" d="M327.6,404.6c3.6,3.6,3.6,9.5,0,13.2c-3.6,3.6-9.5,3.6-13.1,0s-3.6-9.5,0-13.2C318.1,401,324,401,327.6,404.6
		z"/>
	
		<linearGradient id="SVGID_3_" gradientUnits="userSpaceOnUse" x1="326.071" y1="375.779" x2="314.4343" y2="387.4157" gradientTransform="matrix(1 0 0 -1 0 792)">
		<stop  offset="0" style="stop-color:#8DC641"/>
		<stop  offset="1" style="stop-color:#ACD36F"/>
	</linearGradient>
	<path class="st25" d="M327,404c3.6,3.6,3.6,9.5,0,13.2c-3.6,3.6-9.5,3.6-13.1,0s-3.6-9.5,0-13.2C317.5,400.4,323.3,400.4,327,404z"
		/>
</g>
<g>
	<rect x="277" y="396" class="st26" width="29" height="29"/>
	<path class="st27" d="M297.6,403.6c3.6,3.6,3.6,9.5,0,13.2c-3.6,3.6-9.5,3.6-13.1,0s-3.6-9.5,0-13.2C288.1,400,294,400,297.6,403.6
		z"/>
	<g class="st2">
		<path class="st3" d="M303.6,411c3.2,3.2,3.2,8.4,0,11.6s-8.4,3.2-11.6,0s-3.2-8.4,0-11.6S300.4,407.8,303.6,411z"/>
		<path class="st28" d="M303,410.2c3.3,3.3,3.3,8.5,0,11.8s-8.5,3.3-11.8,0s-3.3-8.5,0-11.8C294.5,407,299.7,407,303,410.2z"/>
		<path class="st29" d="M302.4,409.4c3.3,3.3,3.3,8.7,0,12s-8.7,3.3-12,0s-3.3-8.7,0-12C293.7,406.1,299.1,406.1,302.4,409.4z"/>
		<path class="st30" d="M301.8,408.6c3.4,3.4,3.4,8.8,0,12.2c-3.4,3.4-8.8,3.4-12.2,0c-3.4-3.4-3.4-8.8,0-12.2
			C292.9,405.3,298.4,405.3,301.8,408.6z"/>
		<path class="st31" d="M301.1,407.8c3.4,3.4,3.4,9,0,12.4s-9,3.4-12.4,0s-3.4-9,0-12.4C292.2,404.4,297.7,404.4,301.1,407.8z"/>
		<path class="st32" d="M300.5,407c3.5,3.5,3.5,9.1,0,12.6s-9.1,3.5-12.6,0s-3.5-9.1,0-12.6C291.4,403.6,297,403.6,300.5,407z"/>
		<path class="st33" d="M299.9,406.2c3.5,3.5,3.5,9.2,0,12.8c-3.5,3.5-9.2,3.5-12.8,0c-3.5-3.5-3.5-9.2,0-12.8
			C290.6,402.7,296.4,402.7,299.9,406.2z"/>
		<path class="st34" d="M299.3,405.4c3.6,3.6,3.6,9.4,0,13s-9.4,3.6-12.9,0c-3.6-3.6-3.6-9.4,0-13
			C289.9,401.9,295.7,401.9,299.3,405.4z"/>
		<path class="st35" d="M298.6,404.6c3.6,3.6,3.6,9.5,0,13.2c-3.6,3.6-9.5,3.6-13.1,0s-3.6-9.5,0-13.2
			C289.1,401,295,401,298.6,404.6z"/>
	</g>
	<path class="st36" d="M298.6,404.6c3.6,3.6,3.6,9.5,0,13.2c-3.6,3.6-9.5,3.6-13.1,0s-3.6-9.5,0-13.2C289.1,401,295,401,298.6,404.6
		z"/>
	
		<linearGradient id="SVGID_4_" gradientUnits="userSpaceOnUse" x1="297.0737" y1="375.7763" x2="285.4373" y2="387.4127" gradientTransform="matrix(1 0 0 -1 0 792)">
		<stop  offset="0" style="stop-color:#FBCD1A"/>
		<stop  offset="1" style="stop-color:#FFD74D"/>
	</linearGradient>
	<path class="st37" d="M298,404c3.6,3.6,3.6,9.5,0,13.2c-3.6,3.6-9.5,3.6-13.1,0s-3.6-9.5,0-13.2C288.5,400.4,294.4,400.4,298,404z"
		/>
</g>
</svg>
