<?xml version="1.0" encoding="utf-8"?>
<!-- Generator: Adobe Illustrator 19.1.0, SVG Export Plug-In . SVG Version: 6.00 Build 0)  -->
<svg version="1.1" id="Layer_1" xmlns="http://www.w3.org/2000/svg" xmlns:xlink="http://www.w3.org/1999/xlink" x="0px" y="0px"
	 viewBox="-144 368.2 321.8 57.8" style="enable-background:new -144 368.2 321.8 57.8;" xml:space="preserve">
<style type="text/css">
	.st0{fill:#FFFFFF;}
</style>
<g>
	<g>
		<path class="st0" d="M-135.8,415.8c-0.2,0.5-0.6,1.4-1,2.5c-0.3,1-0.3,1.1,1,1.3l-0.2,0.8h-4.1l0.1-0.8c1-0.1,1.3-0.3,2.2-2.1
			l5.4-11.4l1-0.3l0.4,3.5c0.3,2.8,0.6,5.6,0.9,8.2c0.2,1.9,0.4,2,1.4,2.1l-0.1,0.8h-4.8l0.1-0.8c1-0.1,1.2-0.3,1.1-1.3
			c-0.1-0.8-0.2-1.9-0.2-2.5C-132.6,415.8-135.8,415.8-135.8,415.8z M-132.7,414.7l-0.5-4.9l0,0c-0.8,1.7-1.5,3.1-2.2,4.9H-132.7z"
			/>
		<path class="st0" d="M-121.7,409.8c1.1,0,2,0.2,2.6,0.6c0.6,0.5,1,1.2,1,2.3c0,2.1-1.6,3.6-3.9,3.7c-0.2,0-0.4,0-0.7-0.1l-1-0.3
			l-0.3,2.2c-0.2,1.3-0.1,1.4,1.2,1.5l-0.1,0.8h-4.8l0.1-0.8c1.1-0.1,1.2-0.2,1.4-1.5l1.1-6c0.2-1.3,0.1-1.4-1-1.5l0.2-0.8h4.2
			V409.8z M-123.5,415.2c0.2,0.1,0.6,0.2,0.9,0.2c1.2,0,2.1-1.2,2.1-2.8c0-1.4-0.7-1.9-1.6-1.9c-0.6,0-0.7,0.2-0.8,0.7L-123.5,415.2
			z"/>
		<path class="st0" d="M-112.2,409.8c1.1,0,2,0.2,2.6,0.6c0.6,0.5,1,1.2,1,2.3c0,2.1-1.6,3.6-3.9,3.7c-0.2,0-0.4,0-0.7-0.1l-1-0.3
			l-0.2,2.2c-0.2,1.3-0.1,1.4,1.2,1.5l-0.1,0.8h-4.8l0.1-0.8c1.1-0.1,1.2-0.2,1.4-1.5l1.1-6c0.2-1.3,0.1-1.4-1-1.5l0.2-0.8h4.1
			V409.8z M-113.9,415.2c0.2,0.1,0.6,0.2,0.9,0.2c1.2,0,2.1-1.2,2.1-2.8c0-1.4-0.7-1.9-1.6-1.9c-0.6,0-0.7,0.2-0.8,0.7L-113.9,415.2
			z"/>
		<path class="st0" d="M-108.5,420.4l0.1-0.8c1.2-0.1,1.3-0.2,1.5-1.5l1.1-6c0.2-1.3,0.1-1.4-1-1.5l0.1-0.8h4.7v0.8
			c-1.2,0.1-1.3,0.2-1.5,1.5l-1,5.7c-0.1,0.8-0.1,1.2,0.1,1.4c0.2,0.2,0.6,0.2,1.2,0.2c0.6,0,1.1-0.2,1.5-0.6c0.3-0.3,0.7-0.8,1-1.6
			l0.8,0.2c-0.2,0.6-0.8,2.4-1,2.9h-7.6V420.4z"/>
		<path class="st0" d="M-93.2,409.8l-0.2,0.8c-1,0.1-1.2,0.2-1.4,1.5l-1.1,6c-0.2,1.3-0.1,1.4,1,1.5l-0.1,0.8h-4.7l0.1-0.8
			c1.1-0.1,1.2-0.2,1.4-1.5l1.1-6c0.2-1.3,0.1-1.4-1-1.5l0.1-0.8H-93.2z"/>
		<path class="st0" d="M-85,413.1c-0.1-1.9-0.7-2.6-1.8-2.6c-2,0-3.5,2.7-3.5,5.7c0,2.1,0.7,3.5,2,3.5c1.1,0,2.1-1,3-2.6l0.7,0.3
			c-0.3,1-0.9,2.3-1.2,2.8c-0.5,0.1-1.7,0.5-2.7,0.5c-2.4,0-4.2-1.7-4.2-4.6c0-4,2.9-6.5,6.2-6.5c1.1,0,2.1,0.3,2.6,0.5
			c-0.1,0.9-0.2,1.8-0.3,2.9L-85,413.1z"/>
		<path class="st0" d="M-78.8,420.4l0.1-0.8h0.4c0.5-0.1,0.7-0.3,0.5-1.1l-0.2-1.1h-3.2c-0.1,0.3-0.3,0.7-0.6,1.2
			c-0.3,0.7-0.2,0.9,0.3,1l0.4,0.1l0.1,0.7h-3.5l0.2-0.8c0.8-0.1,1.1-0.3,1.8-1.6l4.6-8.3l1-0.2l1.5,8.7c0.2,1.2,0.5,1.3,1.3,1.4
			l-0.2,0.8C-74.3,420.4-78.8,420.4-78.8,420.4z M-80.6,416.4h2.6l-0.6-3.9l0,0L-80.6,416.4z"/>
		<path class="st0" d="M-65.9,409.8c0.4,0,0.6-0.1,0.8-0.4h0.4c-0.1,0.8-0.4,2.5-0.5,3.4h-0.7c0-0.9-0.1-1.3-0.3-1.6
			c-0.2-0.3-0.6-0.5-1.2-0.5H-68l-1.3,7.3c-0.2,1.3-0.1,1.5,1.2,1.6l-0.1,0.8h-5l0.1-0.8c1.2-0.1,1.3-0.2,1.5-1.6l1.3-7.3h-0.4
			c-0.8,0-1.3,0.2-1.5,0.5c-0.3,0.3-0.5,0.8-0.8,1.6h-0.7c0.3-1.4,0.6-2.6,0.8-3.5h0.4c0.1,0.4,0.3,0.4,0.7,0.4h5.9V409.8z"/>
		<path class="st0" d="M-58.8,409.8l-0.2,0.8c-1,0.1-1.2,0.2-1.4,1.5l-1.1,6c-0.2,1.3-0.1,1.4,1,1.5l-0.1,0.8h-4.7l0.1-0.8
			c1.1-0.1,1.2-0.2,1.4-1.5l1.1-6c0.2-1.3,0.1-1.4-1-1.5l0.1-0.8C-63.6,409.8-58.8,409.8-58.8,409.8z"/>
		<path class="st0" d="M-52.9,409.6c2.4,0,4,1.8,4,4.6c0,3.9-2.5,6.5-5.5,6.5c-2.5,0-4.1-1.8-4.1-4.5
			C-58.4,412.4-55.9,409.6-52.9,409.6L-52.9,409.6z M-53,410.5c-1.7,0-2.9,3.2-2.9,6.4c0,1.4,0.4,2.8,1.7,2.8c1.9,0,2.9-3.7,2.9-6.4
			C-51.3,411.8-51.7,410.5-53,410.5L-53,410.5z"/>
		<path class="st0" d="M-44,409.8l3.4,7l0,0l0.5-2.6c0.2-1.3,0.3-2.1,0.3-2.6c0-0.6-0.4-0.9-1.3-0.9l0.1-0.8h3.9l-0.1,0.8
			c-0.7,0-1.2,0.3-1.3,0.9c-0.2,0.5-0.4,1.4-0.6,2.6l-1.1,6.3h-1l-3.8-8.1l0,0l-0.6,3.7c-0.2,1.2-0.3,2.1-0.3,2.6
			c0,0.6,0.3,0.9,1.3,1l-0.4,0.7h-3.8l0.1-0.7c0.8,0,1.1-0.3,1.3-1c0.1-0.5,0.3-1.3,0.6-2.6l0.6-3.4c0.3-1.7,0.1-1.9-1.2-2l0.1-0.8
			h3.3V409.8z"/>
		<path class="st0" d="M-19.8,406.1c-0.1,0.5-0.3,2.1-0.4,3.4l-0.7,0.1c0-0.9-0.2-1.5-0.4-1.9c-0.2-0.4-0.7-0.6-1.8-0.6H-24
			c-0.6,0-0.6,0.1-0.8,0.8l-0.9,4.8h1.6c1.4,0,1.6-0.2,2.2-1.6h0.7l-0.8,4.5h-0.7c0.1-1.7-0.1-1.8-1.6-1.8h-1.6l-0.7,3.8
			c-0.3,1.8-0.2,2,1.4,2.1l-0.1,0.8h-5.5l0.1-0.8c1.2-0.1,1.4-0.3,1.7-2.1l1.5-8.6c0.3-1.8,0.2-2-1.2-2.1l0.1-0.8
			C-28.6,406.1-19.8,406.1-19.8,406.1z"/>
		<path class="st0" d="M-14.8,409.6c2.4,0,4,1.8,4,4.6c0,3.9-2.5,6.5-5.5,6.5c-2.5,0-4.1-1.8-4.1-4.5
			C-20.3,412.4-17.7,409.6-14.8,409.6L-14.8,409.6z M-14.9,410.5c-1.7,0-2.9,3.2-2.9,6.4c0,1.4,0.4,2.8,1.7,2.8
			c1.9,0,2.9-3.7,2.9-6.4C-13.2,411.8-13.6,410.5-14.9,410.5L-14.9,410.5z"/>
		<path class="st0" d="M-4.3,409.8l-0.2,0.8c-1,0.1-1.1,0.2-1.4,1.7l-0.6,3.4c-0.5,2.5,0.2,3.6,1.6,3.6c1.4,0,2.4-1.6,2.8-4.1l0.2-1
			c0.3-1.6,0.3-2.2,0.3-2.8c0-0.6-0.3-0.9-1.2-0.9l0.1-0.8H1l-0.1,0.8c-0.7,0-1.1,0.3-1.3,0.9c-0.2,0.5-0.3,1.2-0.6,2.8l-0.2,1.4
			c-0.2,1.4-0.8,3-1.7,3.9c-0.7,0.7-1.7,1.1-2.7,1.1s-1.9-0.3-2.5-0.8c-0.6-0.7-1-1.8-0.7-3.8l0.7-3.7c0.3-1.5,0.1-1.6-1-1.7
			l0.1-0.8C-9,409.8-4.3,409.8-4.3,409.8z"/>
		<path class="st0" d="M4.7,409.8l3.4,7l0,0l0.5-2.6c0.2-1.3,0.3-2.1,0.3-2.6c0-0.6-0.4-0.9-1.3-0.9l0.1-0.8h3.9l-0.1,0.8
			c-0.7,0-1.2,0.3-1.3,0.9c-0.2,0.5-0.4,1.4-0.6,2.6l-1.1,6.3h-1l-3.8-8.1l0,0l-0.6,3.7c-0.2,1.2-0.3,2.1-0.3,2.6
			c0,0.6,0.3,0.9,1.3,1L4,420.4H0l0.1-0.7c0.8,0,1.1-0.3,1.3-1c0.1-0.5,0.3-1.3,0.6-2.6l0.6-3.4c0.3-1.7,0.1-1.9-1.2-2l0.1-0.8h3.2
			V409.8z"/>
		<path class="st0" d="M16.7,409.8c1.3,0,2.6,0.3,3.4,0.9c0.9,0.7,1.5,1.8,1.5,3.5c0,2.2-1,4-2.6,5.1c-1.2,0.8-2.8,1.1-4.4,1.1h-3.8
			l0.1-0.8c1.1-0.1,1.2-0.2,1.4-1.6l1-5.9c0.2-1.4,0.1-1.5-1-1.6l0.1-0.8h4.3V409.8z M14.8,417.9c-0.2,1.1-0.1,1.6,0.7,1.6
			c2.1,0,3.7-2.3,3.7-5.5c0-2.2-0.8-3.3-2.4-3.3c-0.3,0-0.6,0.1-0.7,0.2c-0.1,0.1-0.2,0.3-0.3,0.8L14.8,417.9z"/>
		<path class="st0" d="M26.7,420.4l0.1-0.8h0.4c0.5-0.1,0.7-0.3,0.5-1.1l-0.2-1.1h-3.2c-0.1,0.3-0.3,0.7-0.6,1.2
			c-0.3,0.7-0.2,0.9,0.3,1l0.4,0.1l-0.2,0.8h-3.5l0.2-0.8c0.8-0.1,1.1-0.3,1.8-1.6l4.6-8.3l1-0.2l1.5,8.7c0.2,1.2,0.5,1.3,1.3,1.4
			l-0.2,0.8h-4.2V420.4z M24.9,416.4h2.6l-0.6-3.9l0,0L24.9,416.4z"/>
		<path class="st0" d="M39.6,409.8c0.4,0,0.6-0.1,0.8-0.4h0.4c-0.1,0.8-0.4,2.5-0.5,3.4h-0.7c0-0.9-0.1-1.3-0.3-1.6
			s-0.6-0.5-1.2-0.5h-0.6l-1.3,7.3c-0.2,1.3-0.1,1.5,1.2,1.6l-0.1,0.8h-5l0.1-0.8c1.2-0.1,1.3-0.2,1.5-1.6l1.3-7.3h-0.4
			c-0.8,0-1.3,0.2-1.5,0.5c-0.3,0.3-0.5,0.8-0.8,1.6h-0.7c0.3-1.4,0.6-2.6,0.8-3.5H33c0.1,0.4,0.3,0.4,0.7,0.4h5.9V409.8z"/>
		<path class="st0" d="M46.7,409.8l-0.2,0.8c-1,0.1-1.2,0.2-1.4,1.5l-1.1,6c-0.2,1.3-0.1,1.4,1,1.5l-0.1,0.8h-4.7l0.1-0.8
			c1.1-0.1,1.2-0.2,1.4-1.5l1.1-6c0.2-1.3,0.1-1.4-1-1.5l0.1-0.8H46.7z"/>
		<path class="st0" d="M52.6,409.6c2.4,0,4,1.8,4,4.6c0,3.9-2.5,6.5-5.5,6.5c-2.5,0-4.1-1.8-4.1-4.5
			C47.1,412.4,49.6,409.6,52.6,409.6L52.6,409.6z M52.5,410.5c-1.7,0-2.9,3.2-2.9,6.4c0,1.4,0.4,2.8,1.7,2.8c1.9,0,2.9-3.7,2.9-6.4
			C54.1,411.8,53.7,410.5,52.5,410.5L52.5,410.5z"/>
		<path class="st0" d="M61.5,409.8l3.4,7l0,0l0.5-2.6c0.2-1.3,0.3-2.1,0.3-2.6c0-0.6-0.4-0.9-1.3-0.9l0.1-0.8h3.9l-0.1,0.8
			c-0.7,0-1.2,0.3-1.3,0.9c-0.2,0.5-0.4,1.4-0.6,2.6l-1.1,6.3h-1l-3.8-8.1l0,0l-0.6,3.7c-0.2,1.2-0.3,2.1-0.3,2.6
			c0,0.6,0.3,0.9,1.3,1l-0.1,0.7H57l0.1-0.7c0.8,0,1.1-0.3,1.3-1c0.1-0.5,0.3-1.3,0.6-2.6l0.6-3.4c0.3-1.7,0.1-1.9-1.2-2l0.1-0.8h3
			V409.8z"/>
		<path class="st0" d="M85.7,406.1c-0.1,0.5-0.3,2.1-0.4,3.4l-0.7,0.1c0-0.9-0.2-1.5-0.4-1.9s-0.7-0.6-1.8-0.6h-0.9
			c-0.6,0-0.6,0.1-0.8,0.8l-0.9,4.8h1.6c1.4,0,1.6-0.2,2.2-1.6h0.7l-0.8,4.5h-0.7c0.1-1.7-0.1-1.8-1.6-1.8h-1.6l-0.7,3.8
			c-0.3,1.8-0.2,2,1.4,2.1l-0.1,0.8h-5.5l0.1-0.8c1.2-0.1,1.4-0.3,1.7-2.1L78,409c0.3-1.8,0.2-2-1.2-2.1l0.1-0.8
			C76.9,406.1,85.7,406.1,85.7,406.1z"/>
		<path class="st0" d="M88.2,415.9l-0.4,2.2c-0.2,1.3-0.1,1.4,1,1.5l-0.1,0.8h-4.6l0.1-0.8c1.1-0.1,1.2-0.2,1.4-1.5l1-6
			c0.2-1.3,0.1-1.4-1-1.5l0.1-0.8H90c0.9,0,1.8,0.1,2.4,0.5c0.6,0.4,1,1,1,2.1c0,1.6-1.1,2.5-2.3,3c0.2,0.5,0.6,1.6,0.9,2.2
			c0.3,0.7,0.6,1.2,0.8,1.5c0.2,0.3,0.5,0.6,0.8,0.7l-0.2,0.6H93c-2,0-2.5-0.6-2.9-1.5c-0.3-0.7-0.6-1.6-0.8-2.4
			c-0.2-0.5-0.4-0.7-0.9-0.7h-0.2V415.9z M88.4,415.1h0.5c0.5,0,1-0.1,1.4-0.4c0.6-0.4,1-1.2,1-2.2c0-1.2-0.6-1.7-1.4-1.7
			c-0.6,0-0.7,0.2-0.8,0.7L88.4,415.1z"/>
		<path class="st0" d="M100.2,420.4l0.1-0.8h0.4c0.5-0.1,0.7-0.3,0.5-1.1l-0.2-1.1h-3.2c-0.1,0.3-0.3,0.7-0.6,1.2
			c-0.3,0.7-0.2,0.9,0.3,1l0.4,0.1l-0.2,0.8h-3.5l0.2-0.8c0.8-0.1,1.1-0.3,1.8-1.6l4.6-8.3l1-0.2l1.5,8.7c0.2,1.2,0.5,1.3,1.3,1.4
			l-0.2,0.8h-4.2V420.4z M98.4,416.4h2.6l-0.6-3.9l0,0L98.4,416.4z"/>
		<path class="st0" d="M119.1,409.8l-0.2,0.8c-1.2,0.1-1.2,0.2-1.4,1.8l-0.8,5.6c-0.2,1.5-0.1,1.5,1.1,1.7l-0.1,0.8h-4.9l0.2-0.8
			c1.2-0.1,1.3-0.2,1.5-1.7l1.1-6.5h-0.1l-4.4,8.7h-0.6l-1-8.6l0,0l-1,4.5c-0.4,1.6-0.5,2.2-0.5,2.6c-0.1,0.6,0.2,0.9,1.1,1
			l-0.2,0.8h-3.7l0.2-0.8c0.7-0.1,1.1-0.3,1.3-0.9c0.2-0.5,0.4-1.2,0.8-2.7l0.9-3.4c0.5-1.8,0.4-1.9-0.8-2l0.2-0.8h3.4l1,6.4
			l3.5-6.4L119.1,409.8L119.1,409.8z"/>
		<path class="st0" d="M128.3,409.8c-0.1,0.5-0.2,1.6-0.3,2.7h-0.7c0-0.6-0.1-1-0.3-1.3c-0.2-0.3-0.5-0.5-1.4-0.5h-0.8
			c-0.6,0-0.6,0-0.7,0.6l-0.5,3h1.3c1,0,1.1-0.1,1.4-1.2h0.7l-0.6,3.4h-0.7c0-1.1,0-1.2-1-1.2h-1.3l-0.4,2.3
			c-0.2,0.9-0.1,1.4,0.1,1.5c0.2,0.2,0.6,0.2,1.2,0.2c0.8,0,1.4-0.1,1.8-0.5c0.3-0.3,0.7-0.9,1-1.5l0.7,0.2c-0.2,0.7-0.8,2.4-1,2.8
			H119l0.1-0.8c1.2-0.1,1.3-0.2,1.6-1.6l1-5.8c0.2-1.4,0.2-1.6-1-1.6l0.1-0.8h7.5V409.8z"/>
		<path class="st0" d="M133.8,409.8l-0.2,0.8l-0.5,0.1c-0.5,0.1-0.7,0.2-0.6,1l0.3,5.3l0,0l3.3-6.9h0.8l1,6.9l0,0
			c0.9-1.9,1.7-3.8,2.3-5.3c0.3-0.8,0.2-1-0.3-1.1l-0.5-0.1l0.2-0.8h3.5l-0.1,0.8c-0.9,0.1-1.1,0.3-1.7,1.4
			c-1.3,2.5-2.6,5.4-4.1,8.6h-0.8l-1.1-6.6l0,0l-3.4,6.6h-0.8l-0.8-8.5c-0.1-1.2-0.3-1.3-1.2-1.4l0.2-0.8
			C129.3,409.8,133.8,409.8,133.8,409.8z"/>
		<path class="st0" d="M148.1,409.6c2.4,0,4,1.8,4,4.6c0,3.9-2.5,6.5-5.5,6.5c-2.5,0-4.1-1.8-4.1-4.5
			C142.5,412.4,145.1,409.6,148.1,409.6L148.1,409.6z M148,410.5c-1.7,0-2.9,3.2-2.9,6.4c0,1.4,0.4,2.8,1.7,2.8
			c1.9,0,2.9-3.7,2.9-6.4C149.6,411.8,149.2,410.5,148,410.5L148,410.5z"/>
		<path class="st0" d="M156.6,415.9l-0.4,2.2c-0.2,1.3-0.1,1.4,1,1.5l-0.1,0.8h-4.6l0.1-0.8c1.1-0.1,1.2-0.2,1.4-1.5l1-6
			c0.2-1.3,0.1-1.4-1-1.5l0.1-0.8h4.3c0.9,0,1.8,0.1,2.4,0.5s1,1,1,2.1c0,1.6-1.1,2.5-2.3,3c0.2,0.5,0.6,1.6,0.9,2.2
			c0.3,0.7,0.6,1.2,0.8,1.5c0.2,0.3,0.5,0.6,0.8,0.7l-0.2,0.6h-0.4c-2,0-2.5-0.6-2.9-1.5c-0.3-0.7-0.6-1.6-0.8-2.4
			c-0.2-0.5-0.4-0.7-0.9-0.7h-0.2V415.9z M156.7,415.1h0.5c0.5,0,1-0.1,1.4-0.4c0.6-0.4,1-1.2,1-2.2c0-1.2-0.6-1.7-1.4-1.7
			c-0.6,0-0.7,0.2-0.8,0.7L156.7,415.1z"/>
		<path class="st0" d="M169.1,409.8l-0.1,0.8c-1,0.1-1.1,0.2-1.3,1.5l-0.4,2.5c0.2,0,0.5-0.2,0.9-0.5c0.9-0.8,1.9-2.1,2.4-2.7
			c0.3-0.4,0.4-0.7,0-0.8l-0.4-0.1l0.1-0.8h3.9l-0.1,0.8c-0.9,0.1-1.5,0.4-2.1,1c-0.7,0.6-1.7,1.6-2.5,2.5c0.7,1.8,1.5,3.6,2,4.6
			c0.4,0.8,0.7,1,1.3,1l-0.1,0.8h-2.9c-0.3-0.7-1.3-3.4-1.8-4.5c-0.2-0.6-0.5-0.6-0.8-0.6l-0.5,2.8c-0.2,1.3-0.1,1.4,1,1.5l-0.1,0.8
			H163l0.1-0.8c1.1,0,1.2-0.2,1.4-1.5l1-6c0.2-1.3,0.1-1.4-1-1.5l0.1-0.8H169.1z"/>
	</g>
</g>
<g>
	<g>
		<path d="M-138.6,391.2c0.4,2.4,2.2,7,6.2,7c2.9,0,4.4-2.2,4.4-4.4c0-2.1-1-3.8-3.5-5.7l-1-0.7c-2.2-1.6-4.6-3.8-4.6-7
			c0-4.5,3.8-7.7,9-7.7c1.5,0,3.1,0.2,4.4,0.6c0.8,0.3,1.3,0.5,1.8,0.6c-0.2,1.7-0.3,3.4-0.4,6l-1.6,0.1c-0.3-2.5-1.2-5.7-4.8-5.7
			c-2.7,0-4,2.2-4,3.9s1.1,3.3,3.2,4.9l1.3,1c2.7,2.1,4.8,4.3,4.8,7.6c0,5.2-4.6,8.2-9.9,8.2c-3.4,0-6.5-1.4-7.1-2.4
			c0-1,0-3.3,0-6.2L-138.6,391.2z"/>
		<path d="M-101.9,380c-0.1,0.8-0.4,2.9-0.7,5l-1.6,0.1c-0.1-1.1-0.2-1.9-0.6-2.4c-0.3-0.6-1.1-0.9-3.1-0.9h-1.6
			c-1.3,0-1.3,0-1.5,1.1l-1.1,5.5h2.7c2.2,0,2.3-0.2,3.1-2.2h1.6l-1.3,6.3h-1.6c0.1-2.1,0-2.2-2.2-2.2h-2.7l-0.9,4.2
			c-0.3,1.7-0.3,2.5,0.2,2.8c0.5,0.3,1.3,0.4,2.7,0.4c1.7,0,3-0.3,3.9-1c0.7-0.6,1.5-1.6,2.2-2.7l1.6,0.3c-0.5,1.2-1.8,4.3-2.2,5.2
			h-17.1l0.3-1.4c2.6-0.2,2.8-0.4,3.4-2.9l2.2-10.7c0.5-2.6,0.4-2.9-2.1-3l0.3-1.4h16.1V380z"/>
		<path d="M-71.2,380l-0.4,1.4c-2.5,0.3-2.7,0.4-3.1,3.2l-1.6,10.3c-0.4,2.7-0.2,2.8,2.4,3.1l-0.3,1.4h-10.5l0.3-1.4
			c2.5-0.3,2.8-0.3,3.3-3.1l2.3-11.9h-0.1l-9.5,16h-1.4l-2.2-15.8l0,0l-2.2,8.2c-0.8,2.9-1,4-1.1,4.8c-0.1,1.2,0.3,1.6,2.5,1.8
			l-0.4,1.4h-7.9l0.4-1.4c1.6-0.2,2.3-0.6,2.9-1.7c0.4-0.9,0.9-2.2,1.7-5l1.9-6.3c1-3.3,0.8-3.4-1.8-3.7l0.4-1.4h7.4l2.1,11.8
			l7.4-11.8L-71.2,380L-71.2,380z"/>
		<path d="M-59,399.4l0.3-1.4l0.8-0.1c1.2-0.1,1.4-0.5,1.1-2l-0.3-2H-64c-0.2,0.5-0.7,1.2-1.3,2.3c-0.6,1.2-0.4,1.7,0.7,1.8l0.9,0.1
			l-0.3,1.4h-7.6l0.3-1.4c1.7-0.2,2.4-0.6,4-2.9l9.8-15.1l2.2-0.4l3.1,16c0.4,2.1,1,2.4,2.9,2.6l-0.3,1.4H-59V399.4z M-63,392h5.6
			l-1.2-7.1h-0.1L-63,392z"/>
		<path d="M-27.4,373.2c1,0,1.3-0.2,2-1h1.1c-0.4,1.7-0.8,4.9-1.2,7.5l-1.6,0.1c-0.1-1.9-0.3-3.1-0.7-3.7c-0.5-0.7-1.5-1-3.1-1h-1.6
			l-4,19.3c-0.7,3.2-0.4,3.5,3.1,3.8l-0.3,1.4h-12.4l0.3-1.4c3.2-0.2,3.6-0.6,4.2-3.8l4-19.3h-1.2c-2.2,0-3.2,0.5-4,1.3
			c-0.6,0.6-1.4,1.7-2.2,3.5h-1.6c0.8-2.9,1.6-5.7,2-7.7h1c0.4,0.9,0.8,1,1.8,1H-27.4z"/>
		<path d="M-18.4,391.1l-0.8,4.1c-0.5,2.4-0.1,2.6,2.2,2.7l-0.3,1.4h-9.9l0.3-1.4c2.4-0.2,2.6-0.4,3.1-2.7l2.3-11.1
			c0.5-2.4,0.2-2.6-2.1-2.8l0.3-1.4h9.3c2,0,3.9,0.2,5.2,1c1.2,0.7,2.1,1.9,2.1,3.8c0,2.9-2.3,4.6-4.9,5.5c0.4,0.9,1.2,2.9,1.9,4.1
			c0.7,1.3,1.2,2.2,1.7,2.8s1.1,1.1,1.6,1.3l-0.4,1.2h-0.8c-4.3,0-5.4-1.1-6.3-2.8c-0.7-1.3-1.3-3-1.8-4.5c-0.4-1-0.9-1.3-1.9-1.3
			h-0.8V391.1z M-18.1,389.6h1.1c1,0,2.1-0.1,3.1-0.7c1.3-0.7,2.1-2.2,2.1-4.1c0-2.2-1.3-3.2-3.1-3.2c-1.2,0-1.6,0.3-1.8,1.3
			L-18.1,389.6z"/>
		<path d="M14.9,380c-0.1,0.8-0.4,2.9-0.7,5l-1.6,0.1c-0.1-1.1-0.2-1.9-0.6-2.4c-0.3-0.6-1.1-0.9-3.1-0.9H7.3c-1.3,0-1.3,0-1.5,1.1
			l-1.1,5.5h2.7c2.2,0,2.3-0.2,3.1-2.2h1.6l-1.3,6.3H9.2c0.1-2.1,0-2.2-2.2-2.2H4.3l-0.9,4.2c-0.3,1.7-0.3,2.5,0.2,2.8
			c0.5,0.3,1.3,0.4,2.7,0.4c1.7,0,3-0.3,3.9-1c0.7-0.6,1.5-1.6,2.2-2.7l1.6,0.3c-0.5,1.2-1.8,4.3-2.2,5.2H-5.1l0.3-1.4
			c2.6-0.2,2.8-0.4,3.4-2.9l2.2-10.7c0.5-2.6,0.4-2.9-2.1-3l0.3-1.4h15.9V380z"/>
		<path d="M35.8,380c-0.1,0.8-0.4,2.9-0.7,5l-1.6,0.1c-0.1-1.1-0.2-1.9-0.6-2.4c-0.3-0.6-1.1-0.9-3.1-0.9h-1.6c-1.3,0-1.3,0-1.5,1.1
			l-1.1,5.5h2.7c2.2,0,2.3-0.2,3.1-2.2H33l-1.3,6.3h-1.6c0.1-2.1,0-2.2-2.2-2.2h-2.7l-0.9,4.2c-0.3,1.7-0.3,2.5,0.2,2.8
			c0.5,0.3,1.3,0.4,2.7,0.4c1.7,0,3-0.3,3.9-1c0.7-0.6,1.5-1.6,2.2-2.7l1.6,0.3c-0.5,1.2-1.8,4.3-2.2,5.2H15.8l0.3-1.4
			c2.6-0.2,2.8-0.4,3.4-2.9l2.2-10.7c0.5-2.6,0.4-2.9-2.1-3l0.3-1.4h15.9V380z"/>
	</g>
</g>
</svg>
